<?xml version="1.0" encoding="UTF-8"?>
<svg version="1.1" xmlns="http://www.w3.org/2000/svg" width="100" height="113">
<path d="M0 0 C33 0 66 0 100 0 C100 37.29 100 74.58 100 113 C67 113 34 113 0 113 C0 75.71 0 38.42 0 0 Z " fill="#142D48" transform="translate(0,0)"/>
<path d="M0 0 C33 0 66 0 100 0 C100 37.29 100 74.58 100 113 C67 113 34 113 0 113 C0 75.71 0 38.42 0 0 Z M63.5625 3 C63.046875 3.66 62.53125 4.32 62 5 C61.649375 4.484375 61.29875 3.96875 60.9375 3.4375 C58.90531273 1.59853617 58.90531273 1.59853617 55.3125 2.3125 C54.219375 2.539375 53.12625 2.76625 52 3 C52 3.66 52 4.32 52 5 C52.66 5.33 53.32 5.66 54 6 C50.16137049 11.02992832 46.94854011 11.60736839 40.8046875 12.46484375 C36.70887983 13.2463558 33.61274478 14.95505012 30 17 C29.67 15.68 29.34 14.36 29 13 C29.61875 12.71125 30.2375 12.4225 30.875 12.125 C33.13325765 11.06279958 33.13325765 11.06279958 35 9 C35 8.01 35 7.02 35 6 C31.28400809 5.79913557 30.22791555 5.8480563 27 8 C24.42351458 8.3674728 21.87463871 8.50369229 19.27734375 8.65625 C16.80530341 8.79893062 16.80530341 8.79893062 15 11 C16.65 11.33 18.3 11.66 20 12 C20 12.66 20 13.32 20 14 C18.02 14 16.04 14 14 14 C14.66 15.32 15.32 16.64 16 18 C19.46941546 17.54177532 22.67395049 17.10868317 26 16 C24.71399035 21.02712864 22.82997078 23.5436849 19 27 C18.401875 27.598125 17.80375 28.19625 17.1875 28.8125 C16.795625 29.204375 16.40375 29.59625 16 30 C16.99 30 17.98 30 19 30 C18.505 30.61875 18.01 31.2375 17.5 31.875 C15.80777227 33.83880904 15.80777227 33.83880904 16 36 C15.401875 36.28875 14.80375 36.5775 14.1875 36.875 C11.80672208 38.04742026 11.80672208 38.04742026 9 40 C8.68180113 34.69668544 9.42173735 31.61938725 12 27 C12 26.34 12 25.68 12 25 C12.66 25 13.32 25 14 25 C13.67 24.34 13.34 23.68 13 23 C9.08299284 22.53578281 9.08299284 22.53578281 7.296875 24.65234375 C3.55002785 30.18745885 1.7785326 34.30737655 3 41 C4.88426505 47.15526584 9.90769046 51.30211838 15 55 C16.04607422 55.23396484 16.04607422 55.23396484 17.11328125 55.47265625 C19 56 19 56 20.484375 57.8203125 C23.24782887 62.85252789 24.61175583 66.24949523 24 72 C22.02 68.535 22.02 68.535 20 65 C18.39815374 64.8647597 16.79303374 64.76789153 15.1875 64.6875 C13.84751953 64.60048828 13.84751953 64.60048828 12.48046875 64.51171875 C9.84010762 64.75789368 9.84010762 64.75789368 8.34765625 67.01953125 C6.7192802 70.62083829 5.42560669 74.22971108 4.25 78 C4.01667969 78.69867188 3.78335937 79.39734375 3.54296875 80.1171875 C2.29150121 84.08891083 1.63785688 87.00438018 3 91 C3.98267859 92.20561184 3.98267859 92.20561184 5.84765625 92.09765625 C8.92382812 92.04882812 8.92382812 92.04882812 12 92 C11.98839844 92.99902344 11.97679687 93.99804688 11.96484375 95.02734375 C11.95582031 96.31769531 11.94679688 97.60804687 11.9375 98.9375 C11.92589844 100.22527344 11.91429687 101.51304688 11.90234375 102.83984375 C11.63467451 105.86298403 11.63467451 105.86298403 13 107 C15.67058851 107.14115161 18.32432238 107.04247107 21 107 C21.33 105.68 21.66 104.36 22 103 C22.55035919 103.48830292 23.10071838 103.97660583 23.66775513 104.47970581 C26.48037622 106.31313744 27.98469405 106.35928696 31.31591797 106.32470703 C32.3773703 106.32125275 33.43882263 106.31779846 34.53244019 106.3142395 C36.24501511 106.28630814 36.24501511 106.28630814 37.9921875 106.2578125 C39.17088409 106.25119598 40.34958069 106.24457947 41.56399536 106.23776245 C45.33459466 106.21434258 49.10460972 106.17064637 52.875 106.125 C56.63817938 106.08989302 60.40132399 106.05907548 64.1645813 106.03366089 C66.5063316 106.01674162 68.84804742 105.99364748 71.18966675 105.96365356 C72.79130173 105.94901566 72.79130173 105.94901566 74.42529297 105.93408203 C75.82616653 105.91717819 75.82616653 105.91717819 77.25534058 105.89993286 C80 106 80 106 83.23123169 106.57833862 C85.97133899 107.30544366 85.97133899 107.30544366 87.875 105.8125 C89.35157524 103.78911589 89.35157524 103.78911589 89 100 C90.32 99.67 91.64 99.34 93 99 C93.76956136 96.65466049 93.76956136 96.65466049 94 94 C92.34560205 91.67490018 91.33280973 91.06865838 88.51953125 90.48828125 C87.62621094 90.43027344 86.73289062 90.37226562 85.8125 90.3125 C84.91144531 90.24675781 84.01039062 90.18101563 83.08203125 90.11328125 C82.39496094 90.07589844 81.70789063 90.03851563 81 90 C81.72896484 89.11828125 81.72896484 89.11828125 82.47265625 88.21875 C84.67905788 85.01354252 84.47534827 82.80278615 84 79 C82.71107713 76.37716666 82.71107713 76.37716666 80 75 C76.96917943 74.68178992 74.03467666 74.76656333 71 75 C71.66 75.33 72.32 75.66 73 76 C73 76.66 73 77.32 73 78 C74.98 78 76.96 78 79 78 C79.66 79.98 80.32 81.96 81 84 C80.01 84 79.02 84 78 84 C77.67 82.68 77.34 81.36 77 80 C75.68 80.33 74.36 80.66 73 81 C73.185625 81.639375 73.37125 82.27875 73.5625 82.9375 C73.706875 83.618125 73.85125 84.29875 74 85 C73.67 85.33 73.34 85.66 73 86 C72.95936168 87.66617115 72.957279 89.33388095 73 91 C71.68 91 70.36 91 69 91 C69 86.71 69 82.42 69 78 C68.67 78 68.34 78 68 78 C68 80.97 68 83.94 68 87 C66.35 87 64.7 87 63 87 C63 83.7 63 80.4 63 77 C63.66 76.67 64.32 76.34 65 76 C64.34 76 63.68 76 63 76 C63.33 75.34 63.66 74.68 64 74 C66.0625 73.375 66.0625 73.375 68 73 C68.061875 72.443125 68.12375 71.88625 68.1875 71.3125 C69.33901755 68.03510391 71.5034586 66.3804232 74 64 C76.57491471 61.06745825 78.4204152 58.91219743 79 55 C80.3921875 54.8453125 80.3921875 54.8453125 81.8125 54.6875 C85.17986635 53.9612053 85.9503923 53.61664614 88 51 C89.20898952 46.9139215 89.49453828 43.20887136 87.875 39.25 C85.70958471 36.65150166 83.51902855 34.26066665 81 32 C80.34 32 79.68 32 79 32 C79.3605712 28.75485923 80.03130329 27.97251418 82.5625 25.75 C85.06322046 22.92867435 85.4072441 22.40707166 85.5625 18.875 C85.3321267 15.09340222 85.3321267 15.09340222 83.4375 12.9375 C79.9788559 11.60725227 77.5559841 12.14392975 74 13 C71.4345406 15.5654594 71.45953913 17.47686668 71 21 C70.01 19.35 69.02 17.7 68 16 C68.66 16 69.32 16 70 16 C70 14.35 70 12.7 70 11 C72.64 10.67 75.28 10.34 78 10 C76.63016497 6.83884224 76.0109362 6.0072908 73 4 C73.66 3.34 74.32 2.68 75 2 C70.91328744 -0.04335628 67.0692773 0.12264427 63.5625 3 Z " fill="#FBFBFB" transform="translate(0,0)"/>
<path d="M0 0 C23.76 0 47.52 0 72 0 C72 0.33 72 0.66 72 1 C70.72125 1.0825 69.4425 1.165 68.125 1.25 C65.94666582 1.45869931 65.94666582 1.45869931 64 2 C62.4100567 3.92064793 62.4100567 3.92064793 62 6 C61.649375 5.505 61.29875 5.01 60.9375 4.5 C58.05625711 2.26936034 55.52990974 2.80019379 52 3 C52 3.66 52 4.32 52 5 C52.99 5.33 53.98 5.66 55 6 C48.91843393 12.08156607 48.91843393 12.08156607 44 12.8125 C38.53468746 13.74839012 33.92466372 15.49510932 29 18 C28.6875 15.75 28.6875 15.75 29 13 C31.4375 10.875 31.4375 10.875 34 9 C34.33 8.01 34.66 7.02 35 6 C30.92035719 7.30155006 30.92035719 7.30155006 27 9 C25.29636178 9.22622081 23.58671299 9.40888473 21.875 9.5625 C20.96492188 9.64628906 20.05484375 9.73007813 19.1171875 9.81640625 C18.41851563 9.87699219 17.71984375 9.93757812 17 10 C17.99 10.66 18.98 11.32 20 12 C20 12.66 20 13.32 20 14 C18.35 14.33 16.7 14.66 15 15 C15.33 15.99 15.66 16.98 16 18 C19.3 17.34 22.6 16.68 26 16 C26 21.88948482 24.93389799 22.88313001 21 27 C20.01 27.66 19.02 28.32 18 29 C18 30.32 18 31.64 18 33 C15.32190489 36.12444429 12.82964655 38.43977363 9 40 C7.59086174 34.36344696 8.26043964 31.55846884 11.08984375 26.50390625 C11.39019531 26.00761719 11.69054688 25.51132812 12 25 C10.94729537 23.84188612 10.94729537 23.84188612 9 23 C8.731875 23.556875 8.46375 24.11375 8.1875 24.6875 C7 27 7 27 5.375 29.1875 C2.94942637 34.1489006 3.34130042 38.9415638 5 44.125 C8.18772826 48.70735937 12.28418743 53.11578196 17.6875 54.875 C21.80662843 56.87890032 23.48924611 60.81395277 25 65 C25.37564759 68.38552391 25.31823782 71.61253524 25 75 C23.05731159 72.08596738 21.53604696 69.14191424 20 66 C16.7 66 13.4 66 10 66 C7.90521162 71.05638574 5.87879318 76.10550943 4.1875 81.3125 C3.93355469 82.09238281 3.67960938 82.87226562 3.41796875 83.67578125 C2.93076044 86.38502369 3.31175647 88.35471025 4 91 C6.64 91.33 9.28 91.66 12 92 C12.06058594 92.99902344 12.12117187 93.99804688 12.18359375 95.02734375 C12.26738281 96.31769531 12.35117188 97.60804687 12.4375 98.9375 C12.51871094 100.22527344 12.59992187 101.51304688 12.68359375 102.83984375 C12.64919188 105.86023957 12.64919188 105.86023957 14 107 C15.40876827 107.34637071 16.82753854 107.65253669 18.25 107.9375 C21.69075397 108.66587446 24.7395029 109.67817685 28 111 C29.9924325 111.37593066 31.9918674 111.71979545 34 112 C34 112.33 34 112.66 34 113 C22.78 113 11.56 113 0 113 C0 75.71 0 38.42 0 0 Z " fill="#FAF9F8" transform="translate(0,0)"/>
<path d="M0 0 C2.625 -0.1875 2.625 -0.1875 5 0 C5 0.66 5 1.32 5 2 C4.34 2 3.68 2 3 2 C0.78075177 6.88234611 0 11.64923372 0 17 C1.175625 16.01 1.175625 16.01 2.375 15 C5 13 5 13 7 13 C7.268125 12.401875 7.53625 11.80375 7.8125 11.1875 C8.98493467 9.02775192 10.19369282 7.64209744 12 6 C12 6.66 12 7.32 12 8 C12.74636719 7.855625 13.49273438 7.71125 14.26171875 7.5625 C23.42665623 6.0576528 32.46632324 5.77818395 41.75 5.75 C43.59597778 5.73646484 43.59597778 5.73646484 45.47924805 5.72265625 C64.13104677 5.78286785 64.13104677 5.78286785 71 10 C73.71936697 14.07905046 73.50053229 17.21713588 73 22 C72.10569876 25.92290122 70.80371517 28.43151854 67.4375 30.8125 C58.06485246 34.05032369 48.91971293 34.33698389 39.0625 34.3125 C37.76892578 34.32861328 36.47535156 34.34472656 35.14257812 34.36132812 C28.16790016 34.36485961 22.02809896 33.86944458 15.37109375 31.73071289 C12.90253302 30.96996307 10.48717132 30.52404463 7.9375 30.125 C5.75 29.671875 5.75 29.671875 4 29 C2.4375 26.375 2.4375 26.375 2 24 C1.34 24.99 0.68 25.98 0 27 C-4.58777087 21.70641823 -6.35078228 18.39622046 -6.29296875 11.28515625 C-5.84770448 7.81209494 -4.16607292 5.67573714 -2 3 C-1.34 2.01 -0.68 1.02 0 0 Z " fill="#C9C8CB" transform="translate(9,23)"/>
<path d="M0 0 C7.99180328 -0.6147541 7.99180328 -0.6147541 11.5625 1.5625 C13.53303623 4.90384403 13.40928874 7.17997175 13 11 C12.37560722 12.35364541 11.71664075 13.69284727 11 15 C11.61488281 15.03738281 12.22976562 15.07476562 12.86328125 15.11328125 C13.67152344 15.17902344 14.47976562 15.24476562 15.3125 15.3125 C16.11300781 15.37050781 16.91351563 15.42851563 17.73828125 15.48828125 C20.4013248 16.0908006 21.39869414 16.80873935 23 19 C22.6875 21.6875 22.6875 21.6875 22 24 C20.68 24.33 19.36 24.66 18 25 C17.814375 26.175625 17.814375 26.175625 17.625 27.375 C17 30 17 30 15 32 C13.40865924 31.79154398 11.81833845 31.56938749 10.23739624 31.29290771 C5.48080545 30.67020079 0.65057436 30.94499915 -4.13671875 31.0078125 C-6.51106352 31.02531734 -8.88541274 31.04222671 -11.25976562 31.05859375 C-14.98620956 31.08963718 -18.71243059 31.12530829 -22.4387207 31.17138672 C-26.04641554 31.21362639 -29.65384478 31.23712889 -33.26171875 31.2578125 C-34.37842453 31.27643341 -35.49513031 31.29505432 -36.64567566 31.3142395 C-37.68387955 31.31769379 -38.72208344 31.32114807 -39.79174805 31.32470703 C-40.70329147 31.33438507 -41.6148349 31.34406311 -42.55400085 31.35403442 C-45.45412198 30.93427029 -46.82929391 29.9182064 -49 28 C-49.33 29.32 -49.66 30.64 -50 32 C-52.64 32 -55.28 32 -58 32 C-57.67 26.39 -57.34 20.78 -57 15 C-47.375 14.75 -47.375 14.75 -44 17 C-43.67 16.01 -43.34 15.02 -43 14 C-41.68 14 -40.36 14 -39 14 C-38.67 15.98 -38.34 17.96 -38 20 C-37.59531494 19.51249268 -37.19062988 19.02498535 -36.77368164 18.52270508 C-34.56141574 16.62347556 -33.50064103 16.62553546 -30.62109375 16.63671875 C-29.78255859 16.63736328 -28.94402344 16.63800781 -28.08007812 16.63867188 C-26.77200195 16.6628418 -26.77200195 16.6628418 -25.4375 16.6875 C-24.56158203 16.68427734 -23.68566406 16.68105469 -22.78320312 16.67773438 C-16.26708681 16.73291319 -16.26708681 16.73291319 -14 19 C-13.67 18.34 -13.34 17.68 -13 17 C-11.37581255 16.91909029 -9.75048255 16.86085005 -8.125 16.8125 C-7.22007813 16.77769531 -6.31515625 16.74289063 -5.3828125 16.70703125 C-4.20332031 16.85205078 -4.20332031 16.85205078 -3 17 C-2.34 17.99 -1.68 18.98 -1 20 C1.77509433 17.22490567 1.59031174 14.82375709 2 11 C2 10.34 2 9.68 2 9 C2.31478446 7.66216607 2.64587656 6.32796291 3 5 C4.32 5.33 5.64 5.66 7 6 C7 6.99 7 7.98 7 9 C7.99 9 8.98 9 10 9 C9.01 6.03 9.01 6.03 8 3 C6.02 3 4.04 3 2 3 C2 2.34 2 1.68 2 1 C1.34 0.67 0.68 0.34 0 0 Z " fill="#203A54" transform="translate(71,75)"/>
<path d="M0 0 C3.375 2 3.375 2 6 4 C9 4.66666667 9 4.66666667 12 4 C12.886875 3.34 13.77375 2.68 14.6875 2 C19.42133438 -0.85816415 23.59598983 -0.68252729 29 0 C32.45128672 1.33207558 34.40996081 2.40996081 37 5 C37.73594087 9.83496037 37.69653046 13.8231037 35.1875 18.0625 C31.52368777 21.30759083 27.96670534 21.33844217 23.28515625 21.28515625 C19.74292393 20.8431341 17.66914831 19.28784141 15 17 C14.484375 16.2575 13.96875 15.515 13.4375 14.75 C12.11208533 12.8073006 12.11208533 12.8073006 9.75 12.3125 C5.9374663 13.26563343 4.22036725 15.49076519 1.6484375 18.37109375 C-1.02977115 21.01757007 -3.77662769 21.1763132 -7.375 21.25 C-11.38286583 21.19786516 -13.85789599 20.66602764 -17 18 C-19.32432174 15.01158633 -19.47116644 11.70297381 -19.39453125 7.96875 C-18.72206358 4.61306974 -16.59717314 3.04063604 -14 1 C-9.82907752 -1.08546124 -4.54152244 -0.45892025 0 0 Z " fill="#2F3A56" transform="translate(40,32)"/>
<path d="M0 0 C3.375 0.375 3.375 0.375 5.375 2.375 C4.715 2.705 4.055 3.035 3.375 3.375 C4.2 3.99375 5.025 4.6125 5.875 5.25 C6.7 5.95125 7.525 6.6525 8.375 7.375 C8.375 8.035 8.375 8.695 8.375 9.375 C5.735 9.705 3.095 10.035 0.375 10.375 C0.375 12.025 0.375 13.675 0.375 15.375 C-0.285 15.375 -0.945 15.375 -1.625 15.375 C-0.635 17.025 0.355 18.675 1.375 20.375 C1.684375 19.240625 1.99375 18.10625 2.3125 16.9375 C3.375 13.375 3.375 13.375 4.375 12.375 C7.62179295 12.08639618 9.78227258 12.09423438 12.75 13.5 C14.375 15.375 14.375 15.375 14.875 18.3125 C14.26942122 22.02167 13.26792847 23.06065723 10.375 25.375 C7.375 27.375 7.375 27.375 4.375 27.375 C4.16875 26.75625 3.9625 26.1375 3.75 25.5 C1.82724112 22.52846355 -0.29094527 22.24475341 -3.625 21.375 C-3.625 20.385 -3.625 19.395 -3.625 18.375 C-8.01753773 16.81227811 -8.01753773 16.81227811 -12.625 16.375 C-12.625 15.385 -12.625 14.395 -12.625 13.375 C-13.615 13.705 -14.605 14.035 -15.625 14.375 C-15.955 15.365 -16.285 16.355 -16.625 17.375 C-17.94147119 18.07437532 -19.27522151 18.74229133 -20.625 19.375 C-20.955 20.035 -21.285 20.695 -21.625 21.375 C-22.615 21.045 -23.605 20.715 -24.625 20.375 C-24.625 19.055 -24.625 17.735 -24.625 16.375 C-25.945 16.375 -27.265 16.375 -28.625 16.375 C-28.625 17.695 -28.625 19.015 -28.625 20.375 C-28.625 21.365 -28.625 22.355 -28.625 23.375 C-27.965 23.375 -27.305 23.375 -26.625 23.375 C-26.625 24.365 -26.625 25.355 -26.625 26.375 C-27.945 26.045 -29.265 25.715 -30.625 25.375 C-30.625 26.035 -30.625 26.695 -30.625 27.375 C-36.375 27.5 -36.375 27.5 -38.625 26.375 C-38.955 27.035 -39.285 27.695 -39.625 28.375 C-41.275 28.375 -42.925 28.375 -44.625 28.375 C-44.625 29.035 -44.625 29.695 -44.625 30.375 C-47.595 30.045 -50.565 29.715 -53.625 29.375 C-52.8825 28.818125 -52.14 28.26125 -51.375 27.6875 C-47.06043888 24.05934633 -44.27945892 21.10151559 -43.625 15.375 C-44.5325 15.705 -45.44 16.035 -46.375 16.375 C-49.625 17.375 -49.625 17.375 -53.625 17.375 C-54.285 16.055 -54.945 14.735 -55.625 13.375 C-53.645 13.375 -51.665 13.375 -49.625 13.375 C-49.625 12.715 -49.625 12.055 -49.625 11.375 C-51.275 11.045 -52.925 10.715 -54.625 10.375 C-52.14166987 7.89166987 -51.11613322 8.07638815 -47.6875 7.875 C-44.00128895 7.65784471 -42.80365632 7.49410421 -39.625 5.375 C-36.9375 5.25 -36.9375 5.25 -34.625 5.375 C-35.1840888 8.61771506 -36.0382178 10.30557424 -38.625 12.375 C-39.285 12.375 -39.945 12.375 -40.625 12.375 C-40.295 13.695 -39.965 15.015 -39.625 16.375 C-38.92375 16.02566406 -38.2225 15.67632812 -37.5 15.31640625 C-28.80355683 11.14542196 -28.80355683 11.14542196 -24.25 10.875 C-19.80721762 10.26220243 -18.41670256 8.77738749 -15.625 5.375 C-16.285 5.045 -16.945 4.715 -17.625 4.375 C-17.625 3.715 -17.625 3.055 -17.625 2.375 C-14.3125 1.6875 -14.3125 1.6875 -10.625 1.375 C-8.6875 2.8125 -8.6875 2.8125 -7.625 4.375 C-7.109375 3.715 -6.59375 3.055 -6.0625 2.375 C-3.625 0.375 -3.625 0.375 0 0 Z " fill="#554E44" transform="translate(69.625,0.625)"/>
<path d="M0 0 C0.495 0.99 0.495 0.99 1 2 C-3.39261974 8.33953179 -8.09161906 13.22299249 -14.375 17.6875 C-16.29991911 19.00088704 -16.29991911 19.00088704 -17 22 C-16.34 22.33 -15.68 22.66 -15 23 C-15 24.32 -15 25.64 -15 27 C-15.99 27.33 -16.98 27.66 -18 28 C-18.33 29.98 -18.66 31.96 -19 34 C-20.65 33.67 -22.3 33.34 -24 33 C-24 29.7 -24 26.4 -24 23 C-24.99 23 -25.98 23 -27 23 C-27 26.3 -27 29.6 -27 33 C-29.475 33.495 -29.475 33.495 -32 34 C-32 30.37 -32 26.74 -32 23 C-33.32 23 -34.64 23 -36 23 C-36 21.68 -36 20.36 -36 19 C-37.32 18.67 -38.64 18.34 -40 18 C-40.2475 16.88625 -40.495 15.7725 -40.75 14.625 C-41.55970627 10.95912285 -41.55970627 10.95912285 -43.9375 9.9375 C-44.618125 9.628125 -45.29875 9.31875 -46 9 C-47.75 5.875 -47.75 5.875 -49 3 C-46.36 3.33 -43.72 3.66 -41 4 C-41 4.66 -41 5.32 -41 6 C-37.7 6.33 -34.4 6.66 -31 7 C-31 6.34 -31 5.68 -31 5 C-24.73 4.67 -18.46 4.34 -12 4 C-12 4.66 -12 5.32 -12 6 C-7.5428126 5.73781251 -5.48477302 5.42288711 -2.0625 2.4375 C-1.381875 1.633125 -0.70125 0.82875 0 0 Z " fill="#026180" transform="translate(77,54)"/>
<path d="M0 0 C6.75 0.75 6.75 0.75 9 3 C9.9017038 9.65006553 9.9017038 9.65006553 7.65625 13.01171875 C6.57739341 14.22543241 5.4634277 15.40908817 4.3125 16.5546875 C2.77590855 17.92137937 2.77590855 17.92137937 3 20 C3.99 20.33 4.98 20.66 6 21 C7.5703125 22.55859375 7.5703125 22.55859375 9.125 24.4375 C9.64320312 25.05496094 10.16140625 25.67242187 10.6953125 26.30859375 C13.21699386 29.57771958 13.48272504 31.89683717 13 36 C10.75 38.9375 10.75 38.9375 8 41 C5.6875 40.8125 5.6875 40.8125 4 40 C4.165 39.030625 4.33 38.06125 4.5 37.0625 C5.26662568 31.68516842 5.73070109 26.19210327 4 21 C-8.07878037 17.91686959 -19.53098103 17.63518436 -31.9375 17.8125 C-33.79621298 17.82759038 -35.65493797 17.841271 -37.51367188 17.85351562 C-42.00941812 17.88613892 -46.50457147 17.93767447 -51 18 C-51 17.67 -51 17.34 -51 17 C-49.35 17 -47.7 17 -46 17 C-45.67 16.01 -45.34 15.02 -45 14 C-42.36 14.66 -39.72 15.32 -37 16 C-37 15.34 -37 14.68 -37 14 C-35.68 14.33 -34.36 14.66 -33 15 C-33 14.01 -33 13.02 -33 12 C-33.66 12 -34.32 12 -35 12 C-35 11.34 -35 10.68 -35 10 C-35.66 9.67 -36.32 9.34 -37 9 C-36.34 8.67 -35.68 8.34 -35 8 C-35 7.34 -35 6.68 -35 6 C-35.66 5.34 -36.32 4.68 -37 4 C-35.02 4 -33.04 4 -31 4 C-30.87625 4.804375 -30.7525 5.60875 -30.625 6.4375 C-30.41875 7.283125 -30.2125 8.12875 -30 9 C-29.34 9.33 -28.68 9.66 -28 10 C-27.67 9.01 -27.34 8.02 -27 7 C-24.9375 5.8125 -24.9375 5.8125 -23 5 C-23 4.01 -23 3.02 -23 2 C-21.68 2 -20.36 2 -19 2 C-18.34 2.99 -17.68 3.98 -17 5 C-16.01 4.67 -15.02 4.34 -14 4 C-11.3125 5.25 -11.3125 5.25 -9 7 C-9 7.99 -9 8.98 -9 10 C-7.6078125 10.37125 -7.6078125 10.37125 -6.1875 10.75 C-2.83541675 12.06454245 -1.8122197 12.97963384 0 16 C0.33 15.34 0.66 14.68 1 14 C1.99 14 2.98 14 4 14 C4.66 12.68 5.32 11.36 6 10 C6.66 10 7.32 10 8 10 C7.34 7.69 6.68 5.38 6 3 C5.34 3 4.68 3 4 3 C4 2.34 4 1.68 4 1 C2.68 0.67 1.36 0.34 0 0 Z " fill="#545861" transform="translate(76,12)"/>
<path d="M0 0 C3.45128672 1.33207558 5.40996081 2.40996081 8 5 C8.73594087 9.83496037 8.69653046 13.8231037 6.1875 18.0625 C2.52420596 21.30713187 -1.0276445 21.33113667 -5.70703125 21.29296875 C-9.20475473 20.84607052 -11.35865969 19.24513927 -14 17 C-16.10578336 12.78843328 -15.40753703 7.3972698 -14.125 3 C-11.43577682 -1.7808412 -4.79263336 -0.3920631 0 0 Z " fill="#363859" transform="translate(69,32)"/>
<path d="M0 0 C2.1090001 0.56560916 4.21212137 1.1531711 6.3125 1.75 C7.48425781 2.07484375 8.65601563 2.3996875 9.86328125 2.734375 C13.14238013 4.05744852 14.25166654 4.99564358 16 8 C16.33218192 4.99740483 16.33218192 4.99740483 14.5 3.3125 C14.005 2.879375 13.51 2.44625 13 2 C15.64168921 2.35698503 17.60890736 2.752308 19.875 4.1875 C21 6 21 6 21.0625 8.9375 C19.6385652 13.04178266 17.84641912 14.11450043 14 16 C11.625 15.75 11.625 15.75 10 15 C10 14.34 10 13.68 10 13 C6.52674819 11.8422494 3.63932552 11.93133348 0 12 C0 12.66 0 13.32 0 14 C0.94875 13.79375 1.8975 13.5875 2.875 13.375 C3.90625 13.25125 4.9375 13.1275 6 13 C8 15 8 15 8.125 17.625 C8.08375 18.40875 8.0425 19.1925 8 20 C7.01 20 6.02 20 5 20 C4.67 19.01 4.34 18.02 4 17 C3.01 17 2.02 17 1 17 C1 17.99 1 18.98 1 20 C1.66 20.66 2.32 21.32 3 22 C2.01 22 1.02 22 0 22 C0 23.65 0 25.3 0 27 C-1.32 27 -2.64 27 -4 27 C-4.33 25.68 -4.66 24.36 -5 23 C-6.65 23 -8.3 23 -10 23 C-10 18.71 -10 14.42 -10 10 C-8.35 9.67 -6.7 9.34 -5 9 C-5 8.34 -5 7.68 -5 7 C-5.66 6.67 -6.32 6.34 -7 6 C-3.25 3 -3.25 3 -1 3 C-0.67 2.01 -0.34 1.02 0 0 Z " fill="#7C8F9D" transform="translate(73,64)"/>
<path d="M0 0 C-0.5590888 3.24271506 -1.4132178 4.93057424 -4 7 C-4.66 7 -5.32 7 -6 7 C-5.67 8.32 -5.34 9.64 -5 11 C-3.64068359 10.54947266 -3.64068359 10.54947266 -2.25390625 10.08984375 C4.89229951 7.85901761 10.52046801 6.45251062 18 8 C18 9.32 18 10.64 18 12 C17.0409375 12.433125 17.0409375 12.433125 16.0625 12.875 C13.84793921 13.82823451 13.84793921 13.82823451 13 16 C12.01 15.67 11.02 15.34 10 15 C10 13.68 10 12.36 10 11 C8.68 11 7.36 11 6 11 C6 12.32 6 13.64 6 15 C6 15.99 6 16.98 6 18 C6.66 18 7.32 18 8 18 C8 18.99 8 19.98 8 21 C6.68 20.67 5.36 20.34 4 20 C4 20.66 4 21.32 4 22 C-1.75 22.125 -1.75 22.125 -4 21 C-4.33 21.66 -4.66 22.32 -5 23 C-6.65 23 -8.3 23 -10 23 C-10 23.66 -10 24.32 -10 25 C-12.97 24.67 -15.94 24.34 -19 24 C-18.2575 23.443125 -17.515 22.88625 -16.75 22.3125 C-12.43543888 18.68434633 -9.65445892 15.72651559 -9 10 C-9.9075 10.33 -10.815 10.66 -11.75 11 C-15 12 -15 12 -19 12 C-19.66 10.68 -20.32 9.36 -21 8 C-19.02 8 -17.04 8 -15 8 C-15 7.34 -15 6.68 -15 6 C-16.65 5.67 -18.3 5.34 -20 5 C-17.51666987 2.51666987 -16.49113322 2.70138815 -13.0625 2.5 C-8.08852685 2.20698244 -5.01160718 -0.27089769 0 0 Z " fill="#F4BF08" transform="translate(35,6)"/>
<path d="M0 0 C1.86205078 -0.01836914 1.86205078 -0.01836914 3.76171875 -0.03710938 C22.4069142 -0.06658018 22.4069142 -0.06658018 29.5 4.1875 C31.56546035 8.31842071 30.88235163 13.62333422 29.8125 18 C28.10983179 20.83778035 26.28639602 22.42051716 23.5 24.1875 C22.51 23.8575 21.52 23.5275 20.5 23.1875 C21.325 22.56875 22.15 21.95 23 21.3125 C25.60522712 18.72953978 25.94056476 16.68874795 26.0625 13.0625 C26.16924635 10.51265014 26.16924635 10.51265014 25.5 8.1875 C20.96043519 3.90706468 16.17093732 3.86322327 10.21875 3.88671875 C6.53953275 4.29375859 4.42794466 6.00856444 1.5 8.1875 C-1.5 8.6875 -1.5 8.6875 -4.5 8.1875 C-5.36625 7.5275 -6.2325 6.8675 -7.125 6.1875 C-12.03508516 3.2778199 -16.91050249 3.35246067 -22.5 4.1875 C-26.20334928 5.96675011 -26.20334928 5.96675011 -28.5 9.1875 C-28.87937519 14.87812784 -28.50974609 18.17125652 -25.5 23.1875 C-27.3125 23 -27.3125 23 -29.5 22.1875 C-33.14626136 16.92067803 -34.53472461 12.57777725 -33.5 6.1875 C-25.7049753 -2.23955373 -10.49198763 0.00544755 0 0 Z " fill="#F5F5F5" transform="translate(50.5,28.8125)"/>
<path d="M0 0 C0.5692218 0.32531708 1.1384436 0.65063416 1.72491455 0.98580933 C4.18149235 2.08090591 5.73113275 2.24275804 8.40136719 2.22705078 C9.2619574 2.22689972 10.12254761 2.22674866 11.00921631 2.22659302 C11.92914368 2.21627045 12.84907104 2.20594788 13.796875 2.1953125 C15.22003021 2.19106766 15.22003021 2.19106766 16.67193604 2.18673706 C19.69808639 2.17555448 22.7239393 2.1504533 25.75 2.125 C27.80338114 2.11496772 29.85676692 2.1058423 31.91015625 2.09765625 C36.94021854 2.07562141 41.97005886 2.04110462 47 2 C46.01 2.66 45.02 3.32 44 4 C48.33273814 4.92844389 51.66726186 4.92844389 56 4 C48.85115981 11.14884019 33.88974437 10.37368259 24.5625 10.375 C22.91121094 10.37717529 22.91121094 10.37717529 21.2265625 10.37939453 C14.36790645 10.28690659 7.21632179 10.15647451 0.98657227 6.97021484 C-1.90346563 5.55875969 -4.83018099 5.36574835 -8 5 C-8 4.67 -8 4.34 -8 4 C-5.69 4 -3.38 4 -1 4 C-0.67 2.68 -0.34 1.36 0 0 Z " fill="#B6D499" transform="translate(22,103)"/>
<path d="M0 0 C2.64 0.33 5.28 0.66 8 1 C8 1.66 8 2.32 8 3 C9.98 3.66 11.96 4.32 14 5 C14.204437 8.67986596 13.74565111 10.78360346 12 14 C12.97582031 13.96519531 13.95164062 13.93039063 14.95703125 13.89453125 C16.22933594 13.86746094 17.50164063 13.84039062 18.8125 13.8125 C20.70935547 13.76029297 20.70935547 13.76029297 22.64453125 13.70703125 C26 14 26 14 27.78125 15.421875 C28.38453125 16.20304687 28.38453125 16.20304687 29 17 C29.886875 17.474375 30.77375 17.94875 31.6875 18.4375 C32.450625 18.953125 33.21375 19.46875 34 20 C34 21.32 34 22.64 34 24 C33.01 24.33 32.02 24.66 31 25 C30.67 26.98 30.34 28.96 30 31 C28.35 30.67 26.7 30.34 25 30 C25 26.7 25 23.4 25 20 C24.01 20 23.02 20 22 20 C22 23.3 22 26.6 22 30 C20.35 30.33 18.7 30.66 17 31 C17 27.37 17 23.74 17 20 C15.68 20 14.36 20 13 20 C13 18.68 13 17.36 13 16 C11.68 15.67 10.36 15.34 9 15 C8.7525 13.88625 8.505 12.7725 8.25 11.625 C7.44029373 7.95912285 7.44029373 7.95912285 5.0625 6.9375 C4.381875 6.628125 3.70125 6.31875 3 6 C1.25 2.875 1.25 2.875 0 0 Z " fill="#2B4C61" transform="translate(28,57)"/>
<path d="M0 0 C2.64 0 5.28 0 8 0 C9.34242421 2.93342898 10.67234067 5.87236252 12 8.8125 C12.3815625 9.64587891 12.763125 10.47925781 13.15625 11.33789062 C13.5171875 12.14033203 13.878125 12.94277344 14.25 13.76953125 C14.58515625 14.50792236 14.9203125 15.24631348 15.265625 16.00708008 C16 18 16 18 16 21 C13.69 21 11.38 21 9 21 C8.67 20.34 8.34 19.68 8 19 C5.67843403 18.59270772 3.3431213 18.25561323 1 18 C0.67 19.32 0.34 20.64 0 22 C-1.98 22 -3.96 22 -6 22 C-5.52960495 14.16008251 -2.77062812 7.27928865 0 0 Z " fill="#965CB2" transform="translate(11,67)"/>
<path d="M0 0 C1.32 0 2.64 0 4 0 C4.66 0.99 5.32 1.98 6 3 C6.99 2.67 7.98 2.34 9 2 C11.6875 3.25 11.6875 3.25 14 5 C14 5.99 14 6.98 14 8 C15.98 8.66 17.96 9.32 20 10 C20 10.66 20 11.32 20 12 C18.56344146 12.08131463 17.1255517 12.13933559 15.6875 12.1875 C14.88699219 12.22230469 14.08648437 12.25710937 13.26171875 12.29296875 C10.52148416 11.93801608 9.70828921 11.10633718 8 9 C8.66 10.32 9.32 11.64 10 13 C7.00293305 13.86963087 4.35043474 14.11763099 1.234375 14.09765625 C0.34492187 14.09443359 -0.54453125 14.09121094 -1.4609375 14.08789062 C-2.38132812 14.07951172 -3.30171875 14.07113281 -4.25 14.0625 C-5.65378906 14.05573242 -5.65378906 14.05573242 -7.0859375 14.04882812 C-9.39069041 14.03706918 -11.69531227 14.02063426 -14 14 C-14 13.34 -14 12.68 -14 12 C-12.68 12.33 -11.36 12.66 -10 13 C-10 12.01 -10 11.02 -10 10 C-10.66 10 -11.32 10 -12 10 C-12 9.34 -12 8.68 -12 8 C-12.66 7.67 -13.32 7.34 -14 7 C-13.34 6.67 -12.68 6.34 -12 6 C-12 5.34 -12 4.68 -12 4 C-12.66 3.34 -13.32 2.68 -14 2 C-12.02 2 -10.04 2 -8 2 C-7.87625 2.804375 -7.7525 3.60875 -7.625 4.4375 C-7.315625 5.7059375 -7.315625 5.7059375 -7 7 C-6.34 7.33 -5.68 7.66 -5 8 C-4.67 7.01 -4.34 6.02 -4 5 C-1.9375 3.8125 -1.9375 3.8125 0 3 C0 2.01 0 1.02 0 0 Z " fill="#08979F" transform="translate(53,14)"/>
<path d="M0 0 C0.495 1.485 0.495 1.485 1 3 C0.67 3.66 0.34 4.32 0 5 C0.598125 4.835 1.19625 4.67 1.8125 4.5 C4 4 4 4 7 4 C2.5 8 2.5 8 -2 8 C-2.33 8.66 -2.66 9.32 -3 10 C-3.495 9.01 -3.495 9.01 -4 8 C-5.0209375 9.2375 -5.0209375 9.2375 -6.0625 10.5 C-9 13 -9 13 -12.8125 13.3125 C-13.864375 13.209375 -14.91625 13.10625 -16 13 C-16 12.34 -16 11.68 -16 11 C-17.27230469 11.24556641 -17.27230469 11.24556641 -18.5703125 11.49609375 C-22.0645531 12.00948445 -25.34627574 12.09850739 -28.875 12.0625 C-30.02742188 12.05347656 -31.17984375 12.04445313 -32.3671875 12.03515625 C-33.23601563 12.02355469 -34.10484375 12.01195312 -35 12 C-35 12.66 -35 13.32 -35 14 C-42.75 14.125 -42.75 14.125 -45 13 C-45 12.34 -45 11.68 -45 11 C-47.31 11 -49.62 11 -52 11 C-51.01 12.98 -50.02 14.96 -49 17 C-51.75 17.3125 -51.75 17.3125 -55 17 C-57.80519876 14.27061743 -59.4229284 11.89523329 -60 8 C-53.59475655 7.87440699 -53.59475655 7.87440699 -50.67382812 8.49121094 C-45.67988011 9.44148373 -40.58898174 9.22546899 -35.51953125 9.24023438 C-33.53373128 9.24983689 -31.54807307 9.28098297 -29.5625 9.3125 C-15.27546296 9.64420387 -15.27546296 9.64420387 -2.70117188 4.01660156 C-0.95634634 2.1084377 -0.95634634 2.1084377 0 0 Z " fill="#204A51" transform="translate(81,47)"/>
<path d="M0 0 C3.2539091 1.05532187 4.29545392 3.03959433 6.3125 5.75 C10.60812081 9.18649665 15.00215473 9.41448799 20.3125 9.75 C8.68609159 16.20619971 -9.28230455 13.09297115 -21.6875 10.75 C-21.6875 10.42 -21.6875 10.09 -21.6875 9.75 C-20.90246094 9.68683594 -20.11742188 9.62367187 -19.30859375 9.55859375 C-12.28828203 8.74027521 -8.76097909 7.6183204 -4.140625 2.2578125 C-2.6875 0.75 -2.6875 0.75 0 0 Z " fill="#F4F3F4" transform="translate(49.6875,43.25)"/>
<path d="M0 0 C0 0.66 0 1.32 0 2 C2.64 1.67 5.28 1.34 8 1 C8.45572917 3.01822917 8.91145833 5.03645833 9.3671875 7.0546875 C9.90474428 9.20719964 9.90474428 9.20719964 12 11 C11.34 12.32 10.68 13.64 10 15 C7.89504036 14.93994409 5.79088565 14.85114641 3.6875 14.75 C2.51574219 14.70359375 1.34398437 14.6571875 0.13671875 14.609375 C-3 14 -3 14 -4.89453125 12.17578125 C-6.51656212 8.98330353 -6.38398406 6.5198539 -6 3 C-4.06841072 0.1486063 -3.51636254 0 0 0 Z " fill="#75527E" transform="translate(30,37)"/>
<path d="M0 0 C3 0.125 3 0.125 4 1.125 C4.09880797 2.60152664 4.13079245 4.08267236 4.1328125 5.5625 C4.13474609 6.90441406 4.13474609 6.90441406 4.13671875 8.2734375 C4.13285156 9.21445313 4.12898438 10.15546875 4.125 11.125 C4.12886719 12.06601563 4.13273437 13.00703125 4.13671875 13.9765625 C4.13542969 14.87117188 4.13414063 15.76578125 4.1328125 16.6875 C4.13168457 17.51378906 4.13055664 18.34007813 4.12939453 19.19140625 C4 21.125 4 21.125 3 22.125 C0.5 22.25 0.5 22.25 -2 22.125 C-4.32673396 19.79826604 -3.47862517 14.26775376 -3.625 11.125 C-3.6765625 10.18398437 -3.728125 9.24296875 -3.78125 8.2734375 C-3.82507813 7.37882812 -3.86890625 6.48421875 -3.9140625 5.5625 C-3.9548291 4.73621094 -3.9955957 3.90992187 -4.03759766 3.05859375 C-3.97467223 -0.17757082 -3.26613693 0.13608904 0 0 Z " fill="#9559B1" transform="translate(31,65.875)"/>
<path d="M0 0 C-0.5590888 3.24271506 -1.4132178 4.93057424 -4 7 C-4.66 7 -5.32 7 -6 7 C-5.67 8.32 -5.34 9.64 -5 11 C-3.68 10.67 -2.36 10.34 -1 10 C-4.11016455 13.28788824 -7.01618925 15.83735988 -11 18 C-10.34 15.36 -9.68 12.72 -9 10 C-9.9075 10.33 -10.815 10.66 -11.75 11 C-15 12 -15 12 -19 12 C-19.66 10.68 -20.32 9.36 -21 8 C-19.02 8 -17.04 8 -15 8 C-15 7.34 -15 6.68 -15 6 C-16.65 5.67 -18.3 5.34 -20 5 C-17.51666987 2.51666987 -16.49113322 2.70138815 -13.0625 2.5 C-8.08852685 2.20698244 -5.01160718 -0.27089769 0 0 Z " fill="#F8C10D" transform="translate(35,6)"/>
<path d="M0 0 C0.99 0 1.98 0 3 0 C2.979375 1.0725 2.95875 2.145 2.9375 3.25 C2.9857984 6.14790424 3.13155885 8.28612141 4 11 C0.11690718 14.64775386 -2.71201818 15.58525633 -8 16 C-8.66 14.68 -9.32 13.36 -10 12 C-9.67 11.67 -9.34 11.34 -9 11 C-8.76712992 9.31816052 -8.58735834 7.6287584 -8.4375 5.9375 C-8.35371094 5.01839844 -8.26992188 4.09929688 -8.18359375 3.15234375 C-8.12300781 2.44207031 -8.06242187 1.73179688 -8 1 C-2.25 0.875 -2.25 0.875 0 2 C0 1.34 0 0.68 0 0 Z " fill="#70588C" transform="translate(69,37)"/>
<path d="M0 0 C3.3 0 6.6 0 10 0 C9.01 0.66 8.02 1.32 7 2 C11.33273814 2.92844389 14.66726186 2.92844389 19 2 C12.28311943 8.71688057 -1.98634518 8.39531162 -10.875 8.4375 C-12.3285791 8.45224365 -12.3285791 8.45224365 -13.81152344 8.46728516 C-14.71676758 8.45616699 -15.62201172 8.44504883 -16.5546875 8.43359375 C-17.36405762 8.42384521 -18.17342773 8.41409668 -19.00732422 8.40405273 C-21 8 -21 8 -23 5 C-20.65147472 3.82573736 -19.26225935 3.88491827 -16.6484375 3.90234375 C-15.37226562 3.90717773 -15.37226562 3.90717773 -14.0703125 3.91210938 C-13.18085937 3.92048828 -12.29140625 3.92886719 -11.375 3.9375 C-10.4778125 3.94201172 -9.580625 3.94652344 -8.65625 3.95117188 C-6.43743352 3.96297409 -4.21874982 3.97943845 -2 4 C-4.64 3.67 -7.28 3.34 -10 3 C-10 2.67 -10 2.34 -10 2 C-6.7 1.67 -3.4 1.34 0 1 C0 0.67 0 0.34 0 0 Z " fill="#FCBE5D" transform="translate(59,105)"/>
<path d="M0 0 C0.66 1.32 1.32 2.64 2 4 C1.01 4.66 0.02 5.32 -1 6 C-0.67 6.66 -0.34 7.32 0 8 C0.9590625 8.1546875 0.9590625 8.1546875 1.9375 8.3125 C2.618125 8.539375 3.29875 8.76625 4 9 C5.25 11.5625 5.25 11.5625 6 14 C3.525 13.505 3.525 13.505 1 13 C0.67 13.99 0.34 14.98 0 16 C-0.66 15.67 -1.32 15.34 -2 15 C-2 14.01 -2 13.02 -2 12 C-9.94957992 11.77571718 -17.27111181 12.04596958 -25 14 C-21.8827258 11.28613776 -19.63651095 10.58834105 -15.5625 10.125 C-10.35246762 9.31702706 -8.17675183 8.16264033 -5 4 C-5.66 3.67 -6.32 3.34 -7 3 C-7 2.34 -7 1.68 -7 1 C-4.53721199 -0.231394 -2.7204945 -0.07159196 0 0 Z " fill="#52804F" transform="translate(59,2)"/>
<path d="M0 0 C3.47552338 0.34755234 4.83993243 0.67588358 7.125 3.3125 C7.625 6.25 7.625 6.25 7.125 9.3125 C5.00593452 11.94306405 2.94481355 13.4326243 0.125 15.3125 C-0.865 15.3125 -1.855 15.3125 -2.875 15.3125 C-4.62710338 10.82273509 -5.24576135 7.13239758 -4.875 2.3125 C-2.875 0.3125 -2.875 0.3125 0 0 Z " fill="#D49225" transform="translate(76.875,12.6875)"/>
<path d="M0 0 C2.64 0 5.28 0 8 0 C8.84026396 1.76755526 9.67198722 3.53917263 10.5 5.3125 C10.9640625 6.29863281 11.428125 7.28476563 11.90625 8.30078125 C13 11 13 11 13 14 C10.125 13.8125 10.125 13.8125 7 13 C5.625 10.4375 5.625 10.4375 5 8 C4.34 8 3.68 8 3 8 C3 8.66 3 9.32 3 10 C1.02 10.33 -0.96 10.66 -3 11 C-2.69078116 9.54096742 -2.37751201 8.08279278 -2.0625 6.625 C-1.88847656 5.81289062 -1.71445313 5.00078125 -1.53515625 4.1640625 C-1 2 -1 2 0 0 Z " fill="#D781B7" transform="translate(11,67)"/>
<path d="M0 0 C2.625 -0.1875 2.625 -0.1875 5 0 C5 0.66 5 1.32 5 2 C4.34 2 3.68 2 3 2 C0.78075177 6.88234611 0 11.64923372 0 17 C0.66 17.33 1.32 17.66 2 18 C1.67 20.97 1.34 23.94 1 27 C-2.74670984 24.33786406 -4.89541254 22.51876687 -6 18 C-6.58366632 13.15107979 -6.53451696 9.96213052 -4.125 5.625 C-3.42375 4.75875 -2.7225 3.8925 -2 3 C-1.34 2.01 -0.68 1.02 0 0 Z " fill="#E5E7B3" transform="translate(9,23)"/>
<path d="M0 0 C0.66 0.33 1.32 0.66 2 1 C1.57847656 2.24136719 1.15695312 3.48273438 0.72265625 4.76171875 C0.16911049 6.40359178 -0.38426604 8.04552188 -0.9375 9.6875 C-1.35418945 10.91243164 -1.35418945 10.91243164 -1.77929688 12.16210938 C-3.09735873 16.0845344 -4.34053586 19.90130514 -5 24 C-3.02 24 -1.04 24 1 24 C1 23.34 1 22.68 1 22 C2.98 22 4.96 22 7 22 C6.34 22.66 5.68 23.32 5 24 C4.5326333 26.8907496 4.16300658 29.71660569 3.875 32.625 C3.78863281 33.42679688 3.70226563 34.22859375 3.61328125 35.0546875 C3.40103673 37.03563635 3.19950069 39.01772718 3 41 C2.67 41 2.34 41 2 41 C2 36.38 2 31.76 2 27 C0.081875 27.061875 0.081875 27.061875 -1.875 27.125 C-4.0546875 27.1953125 -4.0546875 27.1953125 -6 27 C-6.66 26.34 -7.32 25.68 -8 25 C-7.61782291 19.66963532 -6.17144356 14.74887055 -4.5625 9.6875 C-4.34529297 8.97271484 -4.12808594 8.25792969 -3.90429688 7.52148438 C-2.24973171 2.24973171 -2.24973171 2.24973171 0 0 Z " fill="#1E3651" transform="translate(10,65)"/>
<path d="M0 0 C1.19882812 0.15275391 1.19882812 0.15275391 2.421875 0.30859375 C3.02515625 0.39238281 3.6284375 0.47617188 4.25 0.5625 C4.25 1.8825 4.25 3.2025 4.25 4.5625 C3.610625 4.85125 2.97125 5.14 2.3125 5.4375 C0.09793921 6.39073451 0.09793921 6.39073451 -0.75 8.5625 C-1.74 8.2325 -2.73 7.9025 -3.75 7.5625 C-3.75 6.2425 -3.75 4.9225 -3.75 3.5625 C-5.07 3.5625 -6.39 3.5625 -7.75 3.5625 C-7.75 4.8825 -7.75 6.2025 -7.75 7.5625 C-9.4 7.5625 -11.05 7.5625 -12.75 7.5625 C-13.08 8.5525 -13.41 9.5425 -13.75 10.5625 C-14.74 10.2325 -15.73 9.9025 -16.75 9.5625 C-16.75 8.9025 -16.75 8.2425 -16.75 7.5625 C-18.07 7.8925 -19.39 8.2225 -20.75 8.5625 C-15.20347288 2.34366657 -8.34010851 -1.10383789 0 0 Z " fill="#D8E065" transform="translate(48.75,13.4375)"/>
<path d="M0 0 C2.642241 0.0426933 3.8681951 0.10214263 6.1875 1.4375 C7.125 3.25 7.125 3.25 6.9375 5.8125 C6.125 8.25 6.125 8.25 4.125 10.25 C1.5 10.375 1.5 10.375 -0.875 10.25 C-0.875 11.57 -0.875 12.89 -0.875 14.25 C-2.195 14.25 -3.515 14.25 -4.875 14.25 C-4.90185938 12.10423363 -4.92133088 9.95837355 -4.9375 7.8125 C-4.94910156 6.61753906 -4.96070313 5.42257813 -4.97265625 4.19140625 C-4.8254458 -0.24257264 -4.61298734 0.29761209 0 0 Z " fill="#A4C3CA" transform="translate(19.875,89.75)"/>
<path d="M0 0 C1.423125 0.061875 2.84625 0.12375 4.3125 0.1875 C4.3125 3.8175 4.3125 7.4475 4.3125 11.1875 C2.889375 11.249375 1.46625 11.31125 0 11.375 C-1.20076172 11.42720703 -1.20076172 11.42720703 -2.42578125 11.48046875 C-4.6875 11.1875 -4.6875 11.1875 -6.45703125 9.83203125 C-7.6875 8.1875 -7.6875 8.1875 -8.0625 5.6875 C-7.32578631 0.77607538 -4.64330468 -0.20188281 0 0 Z " fill="#7798A5" transform="translate(40.6875,91.8125)"/>
<path d="M0 0 C6.8734414 0.08182668 6.8734414 0.08182668 10 1.875 C12.3125 4.3125 12.3125 4.3125 13.4375 7.8125 C13.3125 11.3125 13.3125 11.3125 11.375 13.75 C10.694375 14.265625 10.01375 14.78125 9.3125 15.3125 C8.6525 14.9825 7.9925 14.6525 7.3125 14.3125 C7.3125 13.6525 7.3125 12.9925 7.3125 12.3125 C6.84482331 10.92617265 6.34066595 9.55192872 5.8125 8.1875 C5.5340625 7.46304688 5.255625 6.73859375 4.96875 5.9921875 C4.7521875 5.43789063 4.535625 4.88359375 4.3125 4.3125 C2.0025 4.3125 -0.3075 4.3125 -2.6875 4.3125 C-2.6875 3.6525 -2.6875 2.9925 -2.6875 2.3125 C-3.6775 2.3125 -4.6675 2.3125 -5.6875 2.3125 C-6.0175 3.3025 -6.3475 4.2925 -6.6875 5.3125 C-7.3475 5.3125 -8.0075 5.3125 -8.6875 5.3125 C-6.29576523 0.36958148 -5.59820897 0.13083145 0 0 Z " fill="#264E6D" transform="translate(32.6875,34.6875)"/>
<path d="M0 0 C0.474375 0.495 0.94875 0.99 1.4375 1.5 C5.20358351 3.70453669 8.73459379 3.24608113 13 3 C13 4.98 13 6.96 13 9 C11.71359619 8.83701416 10.42719238 8.67402832 9.10180664 8.50610352 C4.1752443 7.96084495 -0.67670329 7.87149312 -5.62890625 7.90234375 C-6.94156715 7.90446617 -6.94156715 7.90446617 -8.28074646 7.90663147 C-11.04136762 7.91217281 -13.80190388 7.92471388 -16.5625 7.9375 C-18.44856653 7.9425226 -20.33463434 7.94708417 -22.22070312 7.95117188 C-26.81383417 7.96212293 -31.40690275 7.97934616 -36 8 C-36 7.67 -36 7.34 -36 7 C-34.35 7 -32.7 7 -31 7 C-30.67 6.01 -30.34 5.02 -30 4 C-29.34 4.33 -28.68 4.66 -28 5 C-26.04225931 5.15378852 -24.07982648 5.24971463 -22.1171875 5.31640625 C-20.95058594 5.35830078 -19.78398438 5.40019531 -18.58203125 5.44335938 C-17.35871094 5.48267578 -16.13539062 5.52199219 -14.875 5.5625 C-13.64394531 5.60568359 -12.41289063 5.64886719 -11.14453125 5.69335938 C-8.09647147 5.79968704 -5.0483281 5.90171781 -2 6 C-1.67 5.34 -1.34 4.68 -1 4 C-0.67 3.67 -0.34 3.34 0 3 C0 2.01 0 1.02 0 0 Z " fill="#2D414A" transform="translate(61,22)"/>
<path d="M0 0 C0.98871094 -0.01417969 1.97742188 -0.02835938 2.99609375 -0.04296875 C5.5625 0.1875 5.5625 0.1875 7.5625 2.1875 C7.7578125 4.5703125 7.7578125 4.5703125 7.6875 7.3125 C7.66945313 8.22257812 7.65140625 9.13265625 7.6328125 10.0703125 C7.60960938 10.76898438 7.58640625 11.46765625 7.5625 12.1875 C6.04296875 10.91796875 6.04296875 10.91796875 4.5625 9.1875 C4.875 5.5 4.875 5.5 5.5625 2.1875 C4.5725 2.1875 3.5825 2.1875 2.5625 2.1875 C2.5625 2.8475 2.5625 3.5075 2.5625 4.1875 C0.2525 4.1875 -2.0575 4.1875 -4.4375 4.1875 C-4.49808594 4.81398438 -4.55867188 5.44046875 -4.62109375 6.0859375 C-4.74677734 7.31183594 -4.74677734 7.31183594 -4.875 8.5625 C-4.95621094 9.37460937 -5.03742187 10.18671875 -5.12109375 11.0234375 C-5.4375 13.1875 -5.4375 13.1875 -6.4375 15.1875 C-5.7775 15.8475 -5.1175 16.5075 -4.4375 17.1875 C-7.39925123 16.57472388 -8.81808783 15.93377478 -11.4375 14.1875 C-10.6875 9.4375 -10.6875 9.4375 -8.4375 7.1875 C-7.74649447 5.19577818 -7.07847297 3.19588196 -6.4375 1.1875 C-4.69900372 -0.55099628 -2.3588363 0.01533704 0 0 Z " fill="#2E4A72" transform="translate(66.4375,34.8125)"/>
<path d="M0 0 C2.33984375 0.7734375 2.33984375 0.7734375 5.33984375 2.7734375 C4.33984375 5.7734375 4.33984375 5.7734375 2.71484375 6.9609375 C-1.68781705 8.46711093 -6.2533628 8.1836114 -10.66015625 6.7734375 C-11.41015625 5.0234375 -11.41015625 5.0234375 -11.66015625 2.7734375 C-8.74731494 -2.4974182 -5.08263682 -1.17703169 0 0 Z " fill="#F7FAFA" transform="translate(80.66015625,67.2265625)"/>
<path d="M0 0 C1.98 0 3.96 0 6 0 C6.12375 0.804375 6.2475 1.60875 6.375 2.4375 C6.684375 3.7059375 6.684375 3.7059375 7 5 C7.66 5.33 8.32 5.66 9 6 C9.33 5.01 9.66 4.02 10 3 C11.65 3 13.3 3 15 3 C16.09658936 6.28976808 15.79953138 7.71303767 15 11 C11.7 11 8.4 11 5 11 C4.67 10.01 4.34 9.02 4 8 C3.34 8 2.68 8 2 8 C2 7.34 2 6.68 2 6 C1.34 5.67 0.68 5.34 0 5 C0.66 4.67 1.32 4.34 2 4 C2 3.34 2 2.68 2 2 C1.34 1.34 0.68 0.68 0 0 Z " fill="#09A5A1" transform="translate(39,16)"/>
<path d="M0 0 C1.91595968 -0.08133791 3.83291932 -0.13934367 5.75 -0.1875 C7.35101563 -0.23970703 7.35101563 -0.23970703 8.984375 -0.29296875 C12.32849074 0.03191296 13.68710342 0.59166836 16 3 C16 3.99 16 4.98 16 6 C12.39006828 7.13480527 9.0157673 7.10015767 5.25 7.0625 C4.07953125 7.05347656 2.9090625 7.04445313 1.703125 7.03515625 C0.81109375 7.02355469 -0.0809375 7.01195313 -1 7 C-0.67 4.69 -0.34 2.38 0 0 Z " fill="#03B380" transform="translate(42,62)"/>
<path d="M0 0 C0.495 1.485 0.495 1.485 1 3 C0.67 3.66 0.34 4.32 0 5 C0.598125 4.835 1.19625 4.67 1.8125 4.5 C4 4 4 4 7 4 C2.5 8 2.5 8 -2 8 C-2.33 8.66 -2.66 9.32 -3 10 C-3.495 9.01 -3.495 9.01 -4 8 C-5.0209375 9.2375 -5.0209375 9.2375 -6.0625 10.5 C-9 13 -9 13 -12.8125 13.3125 C-13.864375 13.209375 -14.91625 13.10625 -16 13 C-16 12.34 -16 11.68 -16 11 C-16.55945313 11.08378906 -17.11890625 11.16757812 -17.6953125 11.25390625 C-25.22909703 12.21076956 -32.45771254 11.70641021 -40 11 C-40 10.67 -40 10.34 -40 10 C-39.4016333 9.98541748 -38.8032666 9.97083496 -38.18676758 9.95581055 C-19.41574899 10.53073151 -19.41574899 10.53073151 -2.7265625 4.01953125 C-0.95586489 2.11281128 -0.95586489 2.11281128 0 0 Z " fill="#485463" transform="translate(81,47)"/>
<path d="M0 0 C-1.68488536 1.68488536 -3.29447087 3.22716325 -5.1875 4.6875 C-7.36376221 7.46411041 -7.50303008 9.47527756 -7.33984375 12.9609375 C-6.83542909 15.98742548 -5.56573749 18.39043751 -4 21 C-5.8125 20.8125 -5.8125 20.8125 -8 20 C-11.64626136 14.73317803 -13.03472461 10.39027725 -12 4 C-8.38334644 0.09010426 -5.16971389 -1.60439397 0 0 Z " fill="#F0F0F1" transform="translate(29,31)"/>
<path d="M0 0 C1.875 1.25 1.875 1.25 3 3 C2.75 4.9375 2.75 4.9375 2 7 C1.814375 7.7425 1.62875 8.485 1.4375 9.25 C1.293125 9.8275 1.14875 10.405 1 11 C-4.42857143 11.36190476 -4.42857143 11.36190476 -6.875 9.8125 C-8.40659584 7.34492892 -8.42822025 5.85480169 -8 3 C-5.85607122 -0.27231235 -3.76836426 -0.56525464 0 0 Z " fill="#9EC2C9" transform="translate(78,92)"/>
<path d="M0 0 C3.96 0 7.92 0 12 0 C12 0.99 12 1.98 12 3 C11.01 3 10.02 3 9 3 C9 6.3 9 9.6 9 13 C7.35 13.33 5.7 13.66 4 14 C4 10.37 4 6.74 4 3 C2.68 3 1.36 3 0 3 C0 2.01 0 1.02 0 0 Z " fill="#F5F8F9" transform="translate(41,74)"/>
<path d="M0 0 C0.33 0.66 0.66 1.32 1 2 C-3.72006931 8.81211468 -8.75663962 15.50201201 -17 18 C-15.88194029 14.12979331 -14.9704892 11.71218579 -12 9 C-11.67 8.01 -11.34 7.02 -11 6 C-10.113125 5.938125 -9.22625 5.87625 -8.3125 5.8125 C-4.25918008 4.81828945 -2.70168251 3.09898876 0 0 Z " fill="#02829B" transform="translate(77,54)"/>
<path d="M0 0 C1.15822266 -0.01224609 2.31644531 -0.02449219 3.50976562 -0.03710938 C5.17362305 -0.04000977 5.17362305 -0.04000977 6.87109375 -0.04296875 C7.89001709 -0.04707764 8.90894043 -0.05118652 9.95874023 -0.05541992 C12.5625 0.1875 12.5625 0.1875 15.5625 2.1875 C15.8925 2.8475 16.2225 3.5075 16.5625 4.1875 C7.07741337 6.23832954 -3.07526873 5.62198068 -12.4375 3.1875 C-13.0975 2.5275 -13.7575 1.8675 -14.4375 1.1875 C-10.21792357 -0.92228822 -4.63595541 0.00257125 0 0 Z " fill="#F6F0EB" transform="translate(46.4375,104.8125)"/>
<path d="M0 0 C3.3 0 6.6 0 10 0 C11.60725635 3.21451269 11.05748185 6.43612536 11 10 C9.68 10 8.36 10 7 10 C7 7.69 7 5.38 7 3 C6.01 3.495 6.01 3.495 5 4 C4.34227572 7.02934491 4.34227572 7.02934491 4 10 C2.68 10 1.36 10 0 10 C0 6.7 0 3.4 0 0 Z " fill="#CDE6E8" transform="translate(58,92)"/>
<path d="M0 0 C2.64 0.33 5.28 0.66 8 1 C8 1.66 8 2.32 8 3 C9.98 3.66 11.96 4.32 14 5 C14.20140476 8.62528568 13.85776765 10.86501708 12 14 C11.01 13.67 10.02 13.34 9 13 C8.690625 12.195625 8.38125 11.39125 8.0625 10.5625 C7.27877996 7.87000082 7.27877996 7.87000082 5.0625 7.0625 C2.0025169 5.48614507 1.33351093 3.06707514 0 0 Z " fill="#B6CA43" transform="translate(28,57)"/>
<path d="M0 0 C6.8359375 -0.1953125 6.8359375 -0.1953125 9 0 C11 2 11 2 11.1953125 3.9453125 C11.13020833 5.96354167 11.06510417 7.98177083 11 10 C9.68 10 8.36 10 7 10 C7 7.69 7 5.38 7 3 C6.01 3 5.02 3 4 3 C4 5.31 4 7.62 4 10 C2.68 10 1.36 10 0 10 C0 6.7 0 3.4 0 0 Z " fill="#E9F4F5" transform="translate(46,92)"/>
<path d="M0 0 C0.33 0 0.66 0 1 0 C1.37428035 6.11324567 1.19587946 10.67353423 -2 16 C-10.92232949 22.31091598 -23.20932543 21.25627961 -33.625 21.125 C-35.02473314 21.11494398 -36.42447331 21.10582279 -37.82421875 21.09765625 C-41.21632925 21.07426238 -44.6080706 21.04148173 -48 21 C-48 20.67 -48 20.34 -48 20 C-47.37657715 19.97494385 -46.7531543 19.9498877 -46.11083984 19.92407227 C-39.07284169 19.63811712 -32.03607675 19.32988973 -25 19 C-23.78860352 18.94392578 -23.78860352 18.94392578 -22.55273438 18.88671875 C-20.57621978 18.7903034 -18.60053428 18.67726133 -16.625 18.5625 C-15.54476562 18.50191406 -14.46453125 18.44132812 -13.3515625 18.37890625 C-12.57554688 18.25386719 -11.79953125 18.12882812 -11 18 C-10.67 17.34 -10.34 16.68 -10 16 C-9.21625 15.855625 -8.4325 15.71125 -7.625 15.5625 C-4.58235652 14.91050497 -3.86096778 14.44348678 -2 12 C-1.20531949 9.04478923 -1.20531949 9.04478923 -0.8125 5.8125 C-0.65394531 4.72582031 -0.49539062 3.63914063 -0.33203125 2.51953125 C-0.22246094 1.68808594 -0.11289063 0.85664062 0 0 Z " fill="#C7C6C9" transform="translate(81,36)"/>
<path d="M0 0 C0.99 0 1.98 0 3 0 C2.67 0.99 2.34 1.98 2 3 C2 2.34 2 1.68 2 1 C1.34 0.67 0.68 0.34 0 0 Z M-3 6 C-2.34 6.33 -1.68 6.66 -1 7 C-1.33 9.64 -1.66 12.28 -2 15 C-6.75 14.25 -6.75 14.25 -9 12 C-11.36509361 11.69940057 -13.74441881 11.50484988 -16.125 11.375 C-17.40632813 11.30023438 -18.68765625 11.22546875 -20.0078125 11.1484375 C-21.48894531 11.07496094 -21.48894531 11.07496094 -23 11 C-22.67 10.01 -22.34 9.02 -22 8 C-21.13117187 8.02320312 -20.26234375 8.04640625 -19.3671875 8.0703125 C-17.63855469 8.09738281 -17.63855469 8.09738281 -15.875 8.125 C-14.73804688 8.14820312 -13.60109375 8.17140625 -12.4296875 8.1953125 C-8.94267285 7.99673536 -6.27943657 7.13116798 -3 6 Z " fill="#1A6685" transform="translate(63,60)"/>
<path d="M0 0 C2.24609375 0.29296875 4.4921875 0.5859375 6.73828125 0.87890625 C9.16817116 1.14755178 9.16817116 1.14755178 12 0 C12 3.74161103 11.48661829 7.28953557 11 11 C9.88625 10.835 8.7725 10.67 7.625 10.5 C4.27967967 9.9544542 4.27967967 9.9544542 2 10 C1.34 6.7 0.68 3.4 0 0 Z " fill="#1B2B43" transform="translate(43,35)"/>
<path d="M0 0 C0.66 0 1.32 0 2 0 C2.185625 0.61875 2.37125 1.2375 2.5625 1.875 C3.92878701 4.3850312 3.92878701 4.3850312 7.5 5 C11 6 11 6 12.4375 7.9375 C13 10 13 10 13 13 C10.69 13 8.38 13 6 13 C5.67 12.34 5.34 11.68 5 11 C2.98330173 9.86649466 2.98330173 9.86649466 1 9 C1.66 8.67 2.32 8.34 3 8 C3 7.01 3 6.02 3 5 C1.68 4.67 0.36 4.34 -1 4 C-0.67 2.68 -0.34 1.36 0 0 Z " fill="#8F5FB0" transform="translate(14,75)"/>
<path d="M0 0 C6.8359375 -0.1953125 6.8359375 -0.1953125 9 0 C11 2 11 2 11.125 4.625 C11.08375 5.40875 11.0425 6.1925 11 7 C10.01 7 9.02 7 8 7 C7.67 6.01 7.34 5.02 7 4 C6.01 4 5.02 4 4 4 C4 4.99 4 5.98 4 7 C4.66 7.66 5.32 8.32 6 9 C5.01 9 4.02 9 3 9 C3 10.32 3 11.64 3 13 C2.01 13 1.02 13 0 13 C0 8.71 0 4.42 0 0 Z " fill="#EEF4F5" transform="translate(70,77)"/>
<path d="M0 0 C2.64168921 0.35698503 4.60890736 0.752308 6.875 2.1875 C8 4 8 4 8.0625 6.9375 C6.6385652 11.04178266 4.84641912 12.11450043 1 14 C-1.3125 13.9375 -1.3125 13.9375 -3 13 C-3.33 12.01 -3.66 11.02 -4 10 C-1.69 8.68 0.62 7.36 3 6 C3.33218192 2.99740483 3.33218192 2.99740483 1.5 1.3125 C1.005 0.879375 0.51 0.44625 0 0 Z " fill="#F8D946" transform="translate(86,66)"/>
<path d="M0 0 C0.99 0 1.98 0 3 0 C3 0.66 3 1.32 3 2 C2.01 2.495 2.01 2.495 1 3 C1 4.65 1 6.3 1 8 C-3.455 8.495 -3.455 8.495 -8 9 C-8 6.36 -8 3.72 -8 1 C-2.25 0.875 -2.25 0.875 0 2 C0 1.34 0 0.68 0 0 Z " fill="#B6656E" transform="translate(69,37)"/>
<path d="M0 0 C0.66 0.66 1.32 1.32 2 2 C1.01 2.495 1.01 2.495 0 3 C0.825 3.61875 1.65 4.2375 2.5 4.875 C3.325 5.57625 4.15 6.2775 5 7 C5 7.66 5 8.32 5 9 C1.625 8.6875 1.625 8.6875 -2 8 C-2.66 7.01 -3.32 6.02 -4 5 C-3.34 5 -2.68 5 -2 5 C-2 4.34 -2 3.68 -2 3 C-4.31 3.33 -6.62 3.66 -9 4 C-9 3.01 -9 2.02 -9 1 C-5.98675805 -0.50662097 -3.31713623 -0.17770373 0 0 Z " fill="#75A94C" transform="translate(73,1)"/>
<path d="M0 0 C3 1 3 1 4 3 C4.203125 5.05859375 4.203125 5.05859375 4.25 7.4375 C4.27578125 8.21996094 4.3015625 9.00242187 4.328125 9.80859375 C4 12 4 12 2.62109375 13.8046875 C1 15 1 15 -1.1875 14.6875 C-1.785625 14.460625 -2.38375 14.23375 -3 14 C-2.5359375 13.0409375 -2.5359375 13.0409375 -2.0625 12.0625 C-0.68064597 8.07950896 -0.3463457 4.18349151 0 0 Z " fill="#F6F6F7" transform="translate(83,38)"/>
<path d="M0 0 C0.969375 0.433125 1.93875 0.86625 2.9375 1.3125 C3.27083333 2.64583333 3.60416667 3.97916667 3.9375 5.3125 C6.93365946 6.6170656 6.93365946 6.6170656 9.9375 7.3125 C9.9375 7.9725 9.9375 8.6325 9.9375 9.3125 C6.8877205 9.60021505 3.97575419 9.76281267 0.9375 9.3125 C-0.875 6.9375 -0.875 6.9375 -2.0625 4.3125 C-4.12950655 2.98456394 -4.12950655 2.98456394 -6.0625 2.3125 C-4.43641193 -0.93967615 -3.50629075 -0.78712649 0 0 Z " fill="#068A9B" transform="translate(63.0625,16.6875)"/>
<path d="M0 0 C0.66 0 1.32 0 2 0 C2 0.66 2 1.32 2 2 C2.66 1.67 3.32 1.34 4 1 C5.54023996 0.93049459 7.08334988 0.91547643 8.625 0.9375 C9.85089844 0.95103516 9.85089844 0.95103516 11.1015625 0.96484375 C12.04128906 0.98224609 12.04128906 0.98224609 13 1 C13 1.33 13 1.66 13 2 C11.741875 2.020625 10.48375 2.04125 9.1875 2.0625 C6.97420928 2.24848193 6.97420928 2.24848193 5 3 C3.14732362 6.29494281 3.14732362 6.29494281 2 10 C-0.1875 12.4375 -0.1875 12.4375 -2 14 C-2.3690205 4.58997722 -2.3690205 4.58997722 0 0 Z " fill="#214C6C" transform="translate(56,33)"/>
<path d="M0 0 C2.01822917 0.06510417 4.03645833 0.13020833 6.0546875 0.1953125 C6.0546875 3.4953125 6.0546875 6.7953125 6.0546875 10.1953125 C5.0646875 9.8653125 4.0746875 9.5353125 3.0546875 9.1953125 C2.7246875 7.5453125 2.3946875 5.8953125 2.0546875 4.1953125 C-1.06316363 4.84175911 -1.06316363 4.84175911 -1.9453125 7.1953125 C-2.6053125 7.1953125 -3.2653125 7.1953125 -3.9453125 7.1953125 C-4.0703125 4.8203125 -4.0703125 4.8203125 -3.9453125 2.1953125 C-1.9453125 0.1953125 -1.9453125 0.1953125 0 0 Z " fill="#DDEEEF" transform="translate(37.9453125,91.8046875)"/>
<path d="M0 0 C2.64 0 5.28 0 8 0 C8 1.32 8 2.64 8 4 C7.01 4.33 6.02 4.66 5 5 C4.67 6.98 4.34 8.96 4 11 C2.68 11 1.36 11 0 11 C0 7.37 0 3.74 0 0 Z " fill="#E2E9EC" transform="translate(54,77)"/>
<path d="M0 0 C0.33 0 0.66 0 1 0 C1.66 3.63 2.32 7.26 3 11 C4.60875 10.9071875 4.60875 10.9071875 6.25 10.8125 C10.10866187 11.00543309 11.28817788 11.39665076 14 14 C13.01 14 12.02 14 11 14 C11.55880859 14.79664063 11.55880859 14.79664063 12.12890625 15.609375 C12.60199219 16.31578125 13.07507812 17.0221875 13.5625 17.75 C14.03816406 18.44609375 14.51382812 19.1421875 15.00390625 19.859375 C16 22 16 22 15.65234375 24.265625 C15.32943359 25.12414062 15.32943359 25.12414062 15 26 C14.64808594 25.24074219 14.29617187 24.48148438 13.93359375 23.69921875 C10.92306461 17.04086309 10.92306461 17.04086309 5.25 12.9375 C4.1775 12.628125 3.105 12.31875 2 12 C0 10 0 10 -0.1953125 7.6171875 C-0.17210937 6.71226563 -0.14890625 5.80734375 -0.125 4.875 C-0.10695313 3.96492188 -0.08890625 3.05484375 -0.0703125 2.1171875 C-0.04710937 1.41851562 -0.02390625 0.71984375 0 0 Z " fill="#31404E" transform="translate(10,41)"/>
<path d="M0 0 C0.80824219 0.11085938 1.61648437 0.22171875 2.44921875 0.3359375 C3.37154297 0.47902344 3.37154297 0.47902344 4.3125 0.625 C4.3125 1.945 4.3125 3.265 4.3125 4.625 C3.673125 4.91375 3.03375 5.2025 2.375 5.5 C0.16043921 6.45323451 0.16043921 6.45323451 -0.6875 8.625 C-1.6775 8.295 -2.6675 7.965 -3.6875 7.625 C-3.6875 6.305 -3.6875 4.985 -3.6875 3.625 C-5.0075 2.965 -6.3275 2.305 -7.6875 1.625 C-4.33422361 -0.61051759 -3.78006343 -0.54783528 0 0 Z " fill="#EDD827" transform="translate(48.6875,13.375)"/>
<path d="M0 0 C0.12117187 0.74765625 0.24234375 1.4953125 0.3671875 2.265625 C0.53476563 3.25046875 0.70234375 4.2353125 0.875 5.25 C1.03742187 6.22453125 1.19984375 7.1990625 1.3671875 8.203125 C1.94855848 10.77264117 2.70840265 12.72071056 4 15 C1.125 14.8125 1.125 14.8125 -2 14 C-4.21070144 10.48297498 -4.44395552 7.08439079 -4 3 C-1.7 0 -1.7 0 0 0 Z " fill="#C9C9CB" transform="translate(15,38)"/>
<path d="M0 0 C1.32 0 2.64 0 4 0 C4 4.62 4 9.24 4 14 C2.68 14 1.36 14 0 14 C0 9.38 0 4.76 0 0 Z " fill="#B6D5D9" transform="translate(28,89)"/>
<path d="M0 0 C3 0.125 3 0.125 4 1.125 C4.07319621 3.82154854 4.09242537 6.49191458 4.0625 9.1875 C4.05798828 9.94611328 4.05347656 10.70472656 4.04882812 11.48632812 C4.0370068 13.36591871 4.01907078 15.24546899 4 17.125 C3.67 17.125 3.34 17.125 3 17.125 C2.67 11.845 2.34 6.565 2 1.125 C1.01 1.455 0.02 1.785 -1 2.125 C-1.33 8.065 -1.66 14.005 -2 20.125 C-2.33 20.125 -2.66 20.125 -3 20.125 C-3.19594676 16.97963232 -3.3803401 13.83369386 -3.5625 10.6875 C-3.61857422 9.78966797 -3.67464844 8.89183594 -3.73242188 7.96679688 C-3.78076172 7.11279297 -3.82910156 6.25878906 -3.87890625 5.37890625 C-3.9260376 4.58814697 -3.97316895 3.7973877 -4.02172852 2.98266602 C-3.98452839 -0.19773566 -3.19384596 0.13307691 0 0 Z " fill="#B598B8" transform="translate(31,65.875)"/>
<path d="M0 0 C2.97 0.33 5.94 0.66 9 1 C9 1.99 9 2.98 9 4 C7.68 4.33 6.36 4.66 5 5 C4.67 6.65 4.34 8.3 4 10 C2.68 10 1.36 10 0 10 C0 6.7 0 3.4 0 0 Z " fill="#C4E3E5" transform="translate(82,93)"/>
<path d="M0 0 C0 0.99 0 1.98 0 3 C-1.2065625 3.61875 -1.2065625 3.61875 -2.4375 4.25 C-5.4084131 5.84985553 -5.4084131 5.84985553 -5.8125 9.6875 C-5.874375 10.780625 -5.93625 11.87375 -6 13 C-8.78388975 11.29374499 -9.85384206 10.52373261 -10.75 7.3125 C-10.8325 6.549375 -10.915 5.78625 -11 5 C-10.01 5.495 -10.01 5.495 -9 6 C-9 4.35 -9 2.7 -9 1 C-4.545 0.505 -4.545 0.505 0 0 Z " fill="#EAEAEA" transform="translate(78,9)"/>
<path d="M0 0 C2.6875 0.0625 2.6875 0.0625 6 1 C11 6.25839793 11 6.25839793 11 9 C8.25 9.3125 8.25 9.3125 5 9 C2.19480124 6.27061743 0.5770716 3.89523329 0 0 Z " fill="#1574A1" transform="translate(21,55)"/>
<path d="M0 0 C0.33 1.32 0.66 2.64 1 4 C3.31 4 5.62 4 8 4 C8 5.65 8 7.3 8 9 C1.9453125 9.1953125 1.9453125 9.1953125 0 9 C-2 7 -2 7 -2.125 4.375 C-2.08375 3.59125 -2.0425 2.8075 -2 2 C-1.34 2 -0.68 2 0 2 C0 1.34 0 0.68 0 0 Z " fill="#723D90" transform="translate(27,42)"/>
<path d="M0 0 C1.91015625 0.23046875 1.91015625 0.23046875 3.91015625 2.23046875 C3.91015625 3.55046875 3.91015625 4.87046875 3.91015625 6.23046875 C2.92015625 6.23046875 1.93015625 6.23046875 0.91015625 6.23046875 C0.58015625 5.57046875 0.25015625 4.91046875 -0.08984375 4.23046875 C-2.1144763 3.57833583 -2.1144763 3.57833583 -4.08984375 3.23046875 C-4.08984375 4.55046875 -4.08984375 5.87046875 -4.08984375 7.23046875 C-5.07984375 7.56046875 -6.06984375 7.89046875 -7.08984375 8.23046875 C-7.13226098 5.897521 -7.13077312 3.56344308 -7.08984375 1.23046875 C-5.19495423 -0.66442077 -2.51845229 0.05027763 0 0 Z " fill="#F0F7F7" transform="translate(22.08984375,89.76953125)"/>
<path d="M0 0 C2.1272758 0.6172096 4.25176857 1.24401799 6.375 1.875 C8.15003906 2.39707031 8.15003906 2.39707031 9.9609375 2.9296875 C13 4 13 4 15 6 C15 7.9375 15 7.9375 14 10 C10.9375 11.75 10.9375 11.75 8 13 C8 12.01 8 11.02 8 10 C9.32 9.34 10.64 8.68 12 8 C12 7.34 12 6.68 12 6 C10.39743892 5.49487756 8.79288208 4.99608373 7.1875 4.5 C6.29417969 4.2215625 5.40085937 3.943125 4.48046875 3.65625 C1.94426605 2.87211649 1.94426605 2.87211649 -1 3 C-0.67 2.01 -0.34 1.02 0 0 Z M-3 3 C-2.34 3.33 -1.68 3.66 -1 4 C-2.32 5.32 -3.64 6.64 -5 8 C-5.66 7.34 -6.32 6.68 -7 6 C-5.68 5.01 -4.36 4.02 -3 3 Z " fill="#AAD6D8" transform="translate(73,64)"/>
<path d="M0 0 C0.66 0.33 1.32 0.66 2 1 C1.85892253 2.45880109 1.71197585 3.91703551 1.5625 5.375 C1.48128906 6.18710937 1.40007813 6.99921875 1.31640625 7.8359375 C1 10 1 10 0 12 C0.66 12.66 1.32 13.32 2 14 C-0.96175123 13.38722388 -2.38058783 12.74627478 -5 11 C-4.46884894 6.48521602 -2.63379708 3.65333143 0 0 Z " fill="#485679" transform="translate(60,38)"/>
<path d="M0 0 C0.66 0 1.32 0 2 0 C2 0.66 2 1.32 2 2 C4.64 1.67 7.28 1.34 10 1 C8.125 6.875 8.125 6.875 7 8 C5.33382885 8.04063832 3.66611905 8.042721 2 8 C1.34 5.36 0.68 2.72 0 0 Z " fill="#CFA58C" transform="translate(28,37)"/>
<path d="M0 0 C0.474375 0.495 0.94875 0.99 1.4375 1.5 C5.20358351 3.70453669 8.73459379 3.24608113 13 3 C13 4.98 13 6.96 13 9 C12.38125 8.690625 11.7625 8.38125 11.125 8.0625 C6.81197706 6.5960722 2.5240004 6.33380974 -2 6 C-1 4 -1 4 0 3 C0 2.01 0 1.02 0 0 Z " fill="#549C54" transform="translate(61,22)"/>
<path d="M0 0 C0.66 0.33 1.32 0.66 2 1 C1.67 5.29 1.34 9.58 1 14 C2.32 14 3.64 14 5 14 C5 12.68 5 11.36 5 10 C6.32 10.33 7.64 10.66 9 11 C8.01 11 7.02 11 6 11 C6 11.99 6 12.98 6 14 C6.66 14.33 7.32 14.66 8 15 C7.67 15.66 7.34 16.32 7 17 C4.36 17 1.72 17 -1 17 C-0.67 11.39 -0.34 5.78 0 0 Z " fill="#385269" transform="translate(14,90)"/>
<path d="M0 0 C0.66 0 1.32 0 2 0 C2.33 1.98 2.66 3.96 3 6 C4.65 6 6.3 6 8 6 C7.6875 7.875 7.6875 7.875 7 10 C4 12 4 12 1 12 C0.03929566 9.11788698 -0.10581883 7.30149956 -0.0625 4.3125 C-0.05347656 3.50425781 -0.04445313 2.69601563 -0.03515625 1.86328125 C-0.02355469 1.24839844 -0.01195313 0.63351563 0 0 Z " fill="#FCA609" transform="translate(73,16)"/>
<path d="M0 0 C0.90492187 0.02320313 1.80984375 0.04640625 2.7421875 0.0703125 C4.10730469 0.09738281 4.10730469 0.09738281 5.5 0.125 C6.19867188 0.14820313 6.89734375 0.17140625 7.6171875 0.1953125 C6.22474111 2.98020528 4.05726762 4.31832779 1.6171875 6.1953125 C2.2771875 6.8553125 2.9371875 7.5153125 3.6171875 8.1953125 C1.3071875 8.5253125 -1.0028125 8.8553125 -3.3828125 9.1953125 C-4.0428125 7.8753125 -4.7028125 6.5553125 -5.3828125 5.1953125 C-3.4028125 5.1953125 -1.4228125 5.1953125 0.6171875 5.1953125 C0.6171875 4.5353125 0.6171875 3.8753125 0.6171875 3.1953125 C-1.0328125 2.8653125 -2.6828125 2.5353125 -4.3828125 2.1953125 C-2.3828125 0.1953125 -2.3828125 0.1953125 0 0 Z " fill="#AC8A48" transform="translate(19.3828125,8.8046875)"/>
<path d="M0 0 C0.66 0.99 1.32 1.98 2 3 C1.34644531 3.36222656 0.69289063 3.72445312 0.01953125 4.09765625 C-2.30207397 5.88802585 -2.30207397 5.88802585 -2.42578125 8.99609375 C-2.38839844 10.13175781 -2.35101562 11.26742187 -2.3125 12.4375 C-2.28800781 13.57058594 -2.26351563 14.70367187 -2.23828125 15.87109375 C-2.04540287 18.40380828 -1.73105392 20.58098419 -1 23 C-3.96527758 20.5546615 -4.55582214 18.55397653 -5.1875 14.8125 C-5.34605469 13.91144531 -5.50460938 13.01039062 -5.66796875 12.08203125 C-5.77753906 11.39496094 -5.88710937 10.70789062 -6 10 C-6.99 10.66 -7.98 11.32 -9 12 C-8.1875 10.0625 -8.1875 10.0625 -7 8 C-6.01 7.67 -5.02 7.34 -4 7 C-2.89163577 5.11683841 -2.89163577 5.11683841 -2 3 C-1.34 2.01 -0.68 1.02 0 0 Z " fill="#565B67" transform="translate(20,29)"/>
<path d="M0 0 C1.65 0.33 3.3 0.66 5 1 C5 1.66 5 2.32 5 3 C5.66 3 6.32 3 7 3 C7 3.99 7 4.98 7 6 C5.68 5.67 4.36 5.34 3 5 C3 5.66 3 6.32 3 7 C1.02 7 -0.96 7 -3 7 C-2.38722388 4.03824877 -1.74627478 2.61941217 0 0 Z " fill="#DED11D" transform="translate(36,21)"/>
<path d="M0 0 C2.64 0 5.28 0 8 0 C8 1.32 8 2.64 8 4 C8.66 4.66 9.32 5.32 10 6 C9.01 6.33 8.02 6.66 7 7 C7 8.65 7 10.3 7 12 C4.12801475 9.40594881 2.7118642 7.79660906 2 4 C1.36345658 2.6520257 0.70394612 1.31403276 0 0 Z " fill="#548D35" transform="translate(63,4)"/>
<path d="M0 0 C0.33 0.99 0.66 1.98 1 3 C1.66 3.66 2.32 4.32 3 5 C2.34 5.66 1.68 6.32 1 7 C-3.58537549 6.74525692 -6.58661647 6.14031285 -10 3 C-9.01 2.34 -8.02 1.68 -7 1 C-4.3125 1.875 -4.3125 1.875 -2 3 C-2 2.34 -2 1.68 -2 1 C-1.34 0.67 -0.68 0.34 0 0 Z " fill="#8DE0EB" transform="translate(89,25)"/>
<path d="M0 0 C5.94 1.485 5.94 1.485 12 3 C12 3.66 12 4.32 12 5 C12.99 5.66 13.98 6.32 15 7 C14.67 8.32 14.34 9.64 14 11 C13.38125 10.236875 12.7625 9.47375 12.125 8.6875 C8.53003505 5.01959373 3.86001881 4.16074236 -1 3 C-0.67 2.01 -0.34 1.02 0 0 Z " fill="#D7EEE3" transform="translate(75,62)"/>
<path d="M0 0 C0.66 0.33 1.32 0.66 2 1 C1.24360531 3.48444265 0.47090472 5.96158192 -0.3125 8.4375 C-0.52583984 9.14455078 -0.73917969 9.85160156 -0.95898438 10.58007812 C-1.54830977 12.41842153 -2.2670418 14.21405959 -3 16 C-3.99 16.33 -4.98 16.66 -6 17 C-5.57312017 15.10174715 -5.13300518 13.20646817 -4.6875 11.3125 C-4.44386719 10.25675781 -4.20023437 9.20101562 -3.94921875 8.11328125 C-3.00739175 5.02424372 -1.77627063 2.68182036 0 0 Z " fill="#2A405A" transform="translate(10,65)"/>
<path d="M0 0 C0.66 0.33 1.32 0.66 2 1 C1.67 2.65 1.34 4.3 1 6 C1.66 6.33 2.32 6.66 3 7 C0.36 8.65 -2.28 10.3 -5 12 C-5.33 11.34 -5.66 10.68 -6 10 C-4.75 7.6875 -4.75 7.6875 -3 5 C-2.443125 4.071875 -1.88625 3.14375 -1.3125 2.1875 C-0.879375 1.465625 -0.44625 0.74375 0 0 Z " fill="#035689" transform="translate(66,60)"/>
<path d="M0 0 C1.98 0.495 1.98 0.495 4 1 C4 1.99 4 2.98 4 4 C4.99 4 5.98 4 7 4 C6.67 4.99 6.34 5.98 6 7 C3.625 7.625 3.625 7.625 1 8 C0.34 7.34 -0.32 6.68 -1 6 C-1 3.84365964 -0.5534764 2.07553648 0 0 Z " fill="#AFD1D5" transform="translate(74,80)"/>
<path d="M0 0 C0.33 0 0.66 0 1 0 C1.13277344 0.63808594 1.26554687 1.27617188 1.40234375 1.93359375 C1.57894531 2.75988281 1.75554688 3.58617187 1.9375 4.4375 C2.19853516 5.67306641 2.19853516 5.67306641 2.46484375 6.93359375 C2.80752994 8.97661204 2.80752994 8.97661204 4 10 C6.01594582 10.23427778 8.038474 10.41336124 10.0625 10.5625 C11.16722656 10.64628906 12.27195312 10.73007812 13.41015625 10.81640625 C14.69212891 10.90728516 14.69212891 10.90728516 16 11 C13.6058839 13.3941161 12.96213689 13.29598923 9.6875 13.3125 C5.69124792 13.22240736 3.13784202 12.64755421 0 10 C-1.231394 6.30581799 -0.64432764 3.7943739 0 0 Z " fill="#403760" transform="translate(23,40)"/>
<path d="M0 0 C11.78769664 -0.56631283 11.78769664 -0.56631283 17 3 C17.33 3.66 17.66 4.32 18 5 C17.34 5.66 16.68 6.32 16 7 C15.34 6.01 14.68 5.02 14 4 C10.85069107 2.95023036 8.61185544 2.89868405 5.3125 2.9375 C4.31863281 2.94652344 3.32476562 2.95554688 2.30078125 2.96484375 C1.54152344 2.97644531 0.78226563 2.98804688 0 3 C0 2.01 0 1.02 0 0 Z " fill="#283951" transform="translate(58,32)"/>
<path d="M0 0 C6.75 0.75 6.75 0.75 9 3 C9.90052356 9.7539267 9.90052356 9.7539267 7.65625 12.859375 C6.18064382 14.32106037 4.59559721 15.67033566 3 17 C2.01 16.67 1.02 16.34 0 16 C0.33 15.34 0.66 14.68 1 14 C1.99 14 2.98 14 4 14 C4.66 12.68 5.32 11.36 6 10 C6.66 10 7.32 10 8 10 C7.34 7.69 6.68 5.38 6 3 C5.34 3 4.68 3 4 3 C4 2.34 4 1.68 4 1 C2.68 0.67 1.36 0.34 0 0 Z " fill="#AF6132" transform="translate(76,12)"/>
<path d="M0 0 C0.33 1.32 0.66 2.64 1 4 C2.32 3.67 3.64 3.34 5 3 C1.88983545 6.28788824 -1.01618925 8.83735988 -5 11 C-4.34 8.36 -3.68 5.72 -3 3 C-3.99 2.67 -4.98 2.34 -6 2 C-2.25 0 -2.25 0 0 0 Z " fill="#8A7046" transform="translate(29,13)"/>
<path d="M0 0 C1.875 0.9375 1.875 0.9375 3.125 3.5 C3.3725 4.304375 3.62 5.10875 3.875 5.9375 C2.225 5.6075 0.575 5.2775 -1.125 4.9375 C-1.455 5.9275 -1.785 6.9175 -2.125 7.9375 C-2.785 7.6075 -3.445 7.2775 -4.125 6.9375 C-4.125 5.6175 -4.125 4.2975 -4.125 2.9375 C-4.785 2.6075 -5.445 2.2775 -6.125 1.9375 C-3.94811446 0.61581949 -2.57282067 -0.0756712 0 0 Z " fill="#7CAC68" transform="translate(61.125,10.0625)"/>
<path d="M0 0 C2.64 0 5.28 0 8 0 C7.2884375 0.6496875 7.2884375 0.6496875 6.5625 1.3125 C4.76313043 3.02309613 4.76313043 3.02309613 4 6 C4.66 6.33 5.32 6.66 6 7 C3.69 7 1.38 7 -1 7 C-0.67 4.69 -0.34 2.38 0 0 Z " fill="#039BA9" transform="translate(42,62)"/>
<path d="M0 0 C0.66 0 1.32 0 2 0 C2.12375 0.94875 2.2475 1.8975 2.375 2.875 C2.71687177 6.08667191 2.71687177 6.08667191 5 8 C4.34 9.32 3.68 10.64 3 12 C1.35 11.67 -0.3 11.34 -2 11 C-2.33 9.68 -2.66 8.36 -3 7 C-2.01 6.34 -1.02 5.68 0 5 C0.25030977 2.41619823 0.25030977 2.41619823 0 0 Z " fill="#4D5F87" transform="translate(37,40)"/>
<path d="M0 0 C1.32 0.33 2.64 0.66 4 1 C4.20140476 4.62528568 3.85776765 6.86501708 2 10 C1.01 9.67 0.02 9.34 -1 9 C-2.1875 5.9375 -2.1875 5.9375 -3 3 C-2.01 2.67 -1.02 2.34 0 2 C0 1.34 0 0.68 0 0 Z " fill="#84AD47" transform="translate(38,61)"/>
<path d="M0 0 C-1.0975223 2.99324263 -1.67682892 3.84610901 -4.625 5.25 C-5.40875 5.4975 -6.1925 5.745 -7 6 C-8.32 4.35 -9.64 2.7 -11 1 C-7.32589215 -0.17571451 -3.83070817 -0.07366746 0 0 Z " fill="#0385AB" transform="translate(65,61)"/>
<path d="M0 0 C2 2 2 2 2 5 C0.6078125 4.7215625 0.6078125 4.7215625 -0.8125 4.4375 C-4.01343771 3.75876119 -4.01343771 3.75876119 -7 5 C-7.33 5.99 -7.66 6.98 -8 8 C-8.36075949 3.55063291 -8.36075949 3.55063291 -6.8125 1.1875 C-4.3864306 -0.40199375 -2.84602594 -0.36487512 0 0 Z " fill="#D2DEE1" transform="translate(78,92)"/>
<path d="M0 0 C0.33 0 0.66 0 1 0 C1 1.98 1 3.96 1 6 C1.99 6 2.98 6 4 6 C4 4.02 4 2.04 4 0 C4.33 0 4.66 0 5 0 C5 3.3 5 6.6 5 10 C3.35 10.33 1.7 10.66 0 11 C0 7.37 0 3.74 0 0 Z " fill="#A5C2C9" transform="translate(45,77)"/>
<path d="M0 0 C0 1.65 0 3.3 0 5 C-0.66 5 -1.32 5 -2 5 C-2.33 3.35 -2.66 1.7 -3 0 C-3.66 0 -4.32 0 -5 0 C-5 0.66 -5 1.32 -5 2 C-6.65 2.33 -8.3 2.66 -10 3 C-10 1.35 -10 -0.3 -10 -2 C-5.93943859 -3.71792983 -3.64270496 -2.06971873 0 0 Z " fill="#366530" transform="translate(67,8)"/>
<path d="M0 0 C3.3 0 6.6 0 10 0 C8.68 0.99 7.36 1.98 6 3 C6.66 3.66 7.32 4.32 8 5 C6.68 5 5.36 5 4 5 C4 4.34 4 3.68 4 3 C-0.62 3 -5.24 3 -10 3 C-10 2.67 -10 2.34 -10 2 C-6.7 1.67 -3.4 1.34 0 1 C0 0.67 0 0.34 0 0 Z " fill="#E4C9AC" transform="translate(59,105)"/>
<path d="M0 0 C0.66 0 1.32 0 2 0 C2.185625 0.61875 2.37125 1.2375 2.5625 1.875 C4.71437233 5.05602866 7.37533763 5.19451947 11 6 C11 6.66 11 7.32 11 8 C8.36 8 5.72 8 3 8 C3 7.01 3 6.02 3 5 C1.68 4.67 0.36 4.34 -1 4 C-0.67 2.68 -0.34 1.36 0 0 Z " fill="#6D4D8C" transform="translate(14,75)"/>
<path d="M0 0 C8.14385151 -0.62645012 8.14385151 -0.62645012 11.5625 1.875 C13 4 13 4 13 6 C12.34 6 11.68 6 11 6 C10.67 6.99 10.34 7.98 10 9 C9.34 7.02 8.68 5.04 8 3 C6.02 3 4.04 3 2 3 C2 2.34 2 1.68 2 1 C1.34 0.67 0.68 0.34 0 0 Z " fill="#19324D" transform="translate(71,75)"/>
<path d="M0 0 C2.62527189 -0.05382106 5.24944713 -0.09358313 7.875 -0.125 C8.62136719 -0.14175781 9.36773437 -0.15851563 10.13671875 -0.17578125 C12.09194461 -0.1933959 14.04742021 -0.10320189 16 0 C16.66 0.66 17.32 1.32 18 2 C14.38132441 3.2062252 11.07493749 3.10816918 7.3125 3.0625 C6.61060547 3.05798828 5.90871094 3.05347656 5.18554688 3.04882812 C3.45699462 3.03706927 1.72848635 3.01913454 0 3 C0 2.01 0 1.02 0 0 Z " fill="#077D6E" transform="translate(40,68)"/>
<path d="M0 0 C3.625 0.1875 3.625 0.1875 6.625 2.1875 C6.625 2.8475 6.625 3.5075 6.625 4.1875 C4.315 4.1875 2.005 4.1875 -0.375 4.1875 C-0.375 3.5275 -0.375 2.8675 -0.375 2.1875 C-1.365 2.1875 -2.355 2.1875 -3.375 2.1875 C-3.705 3.1775 -4.035 4.1675 -4.375 5.1875 C-5.035 5.1875 -5.695 5.1875 -6.375 5.1875 C-3.97168508 0.22064917 -3.97168508 0.22064917 0 0 Z " fill="#403E73" transform="translate(30.375,34.8125)"/>
<path d="M0 0 C4 6 4 6 4 10 C1.03 9.505 1.03 9.505 -2 9 C-2 7.68 -2 6.36 -2 5 C-1.34 5 -0.68 5 0 5 C0 3.35 0 1.7 0 0 Z " fill="#BB76B8" transform="translate(20,71)"/>
<path d="M0 0 C0.99386719 0.00902344 1.98773438 0.01804687 3.01171875 0.02734375 C4.15060547 0.04474609 4.15060547 0.04474609 5.3125 0.0625 C5.3125 0.7225 5.3125 1.3825 5.3125 2.0625 C-0.58643243 3.85324734 -4.61929132 4.14610869 -10.6875 3.0625 C-7.3968001 -0.2281999 -4.43626547 -0.05219136 0 0 Z " fill="#F8EFE2" transform="translate(74.6875,104.9375)"/>
<path d="M0 0 C1.98 0.99 3.96 1.98 6 3 C6 3.99 6 4.98 6 6 C3.03 5.505 3.03 5.505 0 5 C0 8.3 0 11.6 0 15 C-0.33 15 -0.66 15 -1 15 C-1.02693575 12.87506859 -1.04636628 10.75004088 -1.0625 8.625 C-1.07410156 7.44164063 -1.08570313 6.25828125 -1.09765625 5.0390625 C-1 2 -1 2 0 0 Z " fill="#2B425A" transform="translate(54,72)"/>
<path d="M0 0 C-1.0625 2.5 -1.0625 2.5 -3 5 C-6.6875 5.3125 -6.6875 5.3125 -10 5 C-10 4.34 -10 3.68 -10 3 C-6.81719857 -0.18280143 -4.38555569 -0.29901516 0 0 Z " fill="#1B4755" transform="translate(75,55)"/>
<path d="M0 0 C-0.5590888 3.24271506 -1.4132178 4.93057424 -4 7 C-4.66 7 -5.32 7 -6 7 C-6 5.68 -6 4.36 -6 3 C-6.66 2.67 -7.32 2.34 -8 2 C-4.77208445 -0.1519437 -3.71599191 -0.20086443 0 0 Z " fill="#AE8843" transform="translate(35,6)"/>
<path d="M0 0 C0.99 0 1.98 0 3 0 C3 0.66 3 1.32 3 2 C2.01 2.495 2.01 2.495 1 3 C1 4.65 1 6.3 1 8 C-1.375 7.6875 -1.375 7.6875 -4 7 C-4.66 6.01 -5.32 5.02 -6 4 C-3 2 -3 2 -1 2 C-0.67 1.34 -0.34 0.68 0 0 Z " fill="#E3B8B8" transform="translate(69,37)"/>
<path d="M0 0 C0.99 0 1.98 0 3 0 C3.33 2.64 3.66 5.28 4 8 C2.35 8 0.7 8 -1 8 C-1.04241723 5.66705225 -1.04092937 3.33297433 -1 1 C-0.67 0.67 -0.34 0.34 0 0 Z " fill="#DF72B2" transform="translate(30,67)"/>
<path d="M0 0 C1.98 0 3.96 0 6 0 C6.33 1.65 6.66 3.3 7 5 C5.68 5.99 4.36 6.98 3 8 C2.67 7.34 2.34 6.68 2 6 C1.34 5.67 0.68 5.34 0 5 C0.66 4.67 1.32 4.34 2 4 C2 3.34 2 2.68 2 2 C1.34 1.34 0.68 0.68 0 0 Z " fill="#57BF97" transform="translate(39,16)"/>
<path d="M0 0 C0.84304687 0.42925781 0.84304687 0.42925781 1.703125 0.8671875 C4.02870923 2.01415931 6.37770201 3.07839794 8.75 4.125 C9.54921875 4.47820312 10.3484375 4.83140625 11.171875 5.1953125 C11.77515625 5.46085937 12.3784375 5.72640625 13 6 C9.57056481 7.18771723 7.62215325 6.80226223 4.25 5.5625 C3.45078125 5.27503906 2.6515625 4.98757812 1.828125 4.69140625 C1.22484375 4.46324219 0.6215625 4.23507813 0 4 C0 2.68 0 1.36 0 0 Z " fill="#E9F5F1" transform="translate(22,103)"/>
<path d="M0 0 C0.33 1.32 0.66 2.64 1 4 C1.99 4 2.98 4 4 4 C4 5.98 4 7.96 4 10 C2.68 10 1.36 10 0 10 C0 6.7 0 3.4 0 0 Z " fill="#C0E1E3" transform="translate(46,92)"/>
<path d="M0 0 C0.33 0.66 0.66 1.32 1 2 C-2.17320782 5.53586014 -4.16743695 7.58578031 -9 8 C-9 7.01 -9 6.02 -9 5 C-7.88625 4.54625 -6.7725 4.0925 -5.625 3.625 C-2.03800992 2.27534014 -2.03800992 2.27534014 0 0 Z " fill="#FB8544" transform="translate(93,72)"/>
<path d="M0 0 C0 0.66 0 1.32 0 2 C0.99 2.66 1.98 3.32 3 4 C-0.57644848 5.2380014 -3.33694766 4.74926071 -7 4 C-7 3.01 -7 2.02 -7 1 C-4.53721199 -0.231394 -2.7204945 -0.07159196 0 0 Z " fill="#B071B5" transform="translate(14,77)"/>
<path d="M0 0 C1.27875 -0.061875 2.5575 -0.12375 3.875 -0.1875 C4.95394531 -0.23970703 4.95394531 -0.23970703 6.0546875 -0.29296875 C6.69664063 -0.19628906 7.33859375 -0.09960938 8 0 C10 3 10 3 9.625 5.1875 C9.41875 5.785625 9.2125 6.38375 9 7 C8.34 5.35 7.68 3.7 7 2 C4.36 2 1.72 2 -1 2 C-0.67 1.34 -0.34 0.68 0 0 Z " fill="#152D48" transform="translate(12,65)"/>
<path d="M0 0 C0.99 0 1.98 0 3 0 C3 2.97 3 5.94 3 9 C2.01 9 1.02 9 0 9 C0 6.03 0 3.06 0 0 Z " fill="#DEF2F3" transform="translate(64,78)"/>
<path d="M0 0 C0.33 0 0.66 0 1 0 C1.37554282 6.13386604 1.08404923 10.60291384 -2 16 C-4.1875 17.4375 -4.1875 17.4375 -6 18 C-4.84826645 15.53199953 -3.95216435 13.95216435 -2 12 C-1.3162387 9.11282395 -1.3162387 9.11282395 -0.875 5.875 C-0.62363281 4.23144531 -0.62363281 4.23144531 -0.3671875 2.5546875 C-0.24601562 1.71164063 -0.12484375 0.86859375 0 0 Z " fill="#B7B8BC" transform="translate(81,36)"/>
<path d="M0 0 C0.33 0.66 0.66 1.32 1 2 C2.97888961 2.72693904 4.97954558 3.39816251 7 4 C7 4.66 7 5.32 7 6 C2.31261335 5.09276387 -2.34193744 4.0452733 -7 3 C-7 2.67 -7 2.34 -7 2 C-4.69 2 -2.38 2 0 2 C0 1.34 0 0.68 0 0 Z " fill="#72BCBF" transform="translate(21,105)"/>
<path d="M0 0 C2.64 0.33 5.28 0.66 8 1 C8 1.99 8 2.98 8 4 C5.36 4 2.72 4 0 4 C0 2.68 0 1.36 0 0 Z " fill="#EFF4F5" transform="translate(83,93)"/>
<path d="M0 0 C0.33 0 0.66 0 1 0 C1 2.97 1 5.94 1 9 C1.99 8.34 2.98 7.68 4 7 C3.3125 8.9375 3.3125 8.9375 2 11 C0.35 11.33 -1.3 11.66 -3 12 C-2.01 8.04 -1.02 4.08 0 0 Z " fill="#B5B6B8" transform="translate(83,41)"/>
<path d="M0 0 C1.65 0 3.3 0 5 0 C5 0.66 5 1.32 5 2 C6.32 2.33 7.64 2.66 9 3 C4.05 3 -0.9 3 -6 3 C-6 2.67 -6 2.34 -6 2 C-4.02 2 -2.04 2 0 2 C0 1.34 0 0.68 0 0 Z " fill="#087178" transform="translate(46,59)"/>
<path d="M0 0 C0.66 0.99 1.32 1.98 2 3 C1.125 5.6875 1.125 5.6875 0 8 C-0.99 7.67 -1.98 7.34 -3 7 C-2.25 2.25 -2.25 2.25 0 0 Z " fill="#395E7F" transform="translate(58,42)"/>
<path d="M0 0 C6.93 0.495 6.93 0.495 14 1 C13.67 1.99 13.34 2.98 13 4 C10.36 3.67 7.72 3.34 5 3 C5 2.34 5 1.68 5 1 C3.35 1 1.7 1 0 1 C0 0.67 0 0.34 0 0 Z " fill="#DEDFE2" transform="translate(58,29)"/>
<path d="M0 0 C1 3 1 3 0 6 C0.66 6.33 1.32 6.66 2 7 C-0.97 6.67 -3.94 6.34 -7 6 C-6.21625 5.38125 -5.4325 4.7625 -4.625 4.125 C-2.03162353 2.10141339 -2.03162353 2.10141339 0 0 Z " fill="#B48A2B" transform="translate(23,24)"/>
<path d="M0 0 C1.32 0 2.64 0 4 0 C4 2.31 4 4.62 4 7 C2.02 6.34 0.04 5.68 -2 5 C-1.67 4.360625 -1.34 3.72125 -1 3.0625 C0.07271225 1.23205433 0.07271225 1.23205433 0 0 Z " fill="#2A9B89" transform="translate(53,14)"/>
<path d="M0 0 C0.99 0 1.98 0 3 0 C3 2.64 3 5.28 3 8 C2.01 8 1.02 8 0 8 C0 5.36 0 2.72 0 0 Z " fill="#F2F9FA" transform="translate(28,90)"/>
<path d="M0 0 C5.66153846 1.47692308 5.66153846 1.47692308 7.375 4.125 C7.684375 5.053125 7.684375 5.053125 8 6 C5.6875 5.8125 5.6875 5.8125 3 5 C1.1875 2.4375 1.1875 2.4375 0 0 Z " fill="#27AECB" transform="translate(24,58)"/>
<path d="M0 0 C0.99 0.33 1.98 0.66 3 1 C3 2.32 3 3.64 3 5 C1.35 5.33 -0.3 5.66 -2 6 C-2 4.35 -2 2.7 -2 1 C-1.34 0.67 -0.68 0.34 0 0 Z " fill="#BD61B4" transform="translate(31,74)"/>
<path d="M0 0 C1.98 1.65 3.96 3.3 6 5 C5.67 6.32 5.34 7.64 5 9 C0 3.375 0 3.375 0 0 Z " fill="#72CEC6" transform="translate(4,41)"/>
<path d="M0 0 C0.33 0 0.66 0 1 0 C1 1.98 1 3.96 1 6 C1.99 6 2.98 6 4 6 C4 7.32 4 8.64 4 10 C2.68 10 1.36 10 0 10 C0 6.7 0 3.4 0 0 Z " fill="#A2C7CC" transform="translate(58,92)"/>
<path d="M0 0 C0.33 0.66 0.66 1.32 1 2 C-0.65 4.31 -2.3 6.62 -4 9 C-4.33 7.68 -4.66 6.36 -5 5 C-2.5625 2.25 -2.5625 2.25 0 0 Z " fill="#045A85" transform="translate(77,54)"/>
<path d="M0 0 C1.65 0 3.3 0 5 0 C5 1.65 5 3.3 5 5 C3.02 5 1.04 5 -1 5 C-0.34 4.01 0.32 3.02 1 2 C0.67 1.34 0.34 0.68 0 0 Z " fill="#6E5094" transform="translate(30,46)"/>
<path d="M0 0 C0.80824219 0.11085938 1.61648437 0.22171875 2.44921875 0.3359375 C3.37154297 0.47902344 3.37154297 0.47902344 4.3125 0.625 C4.3125 0.955 4.3125 1.285 4.3125 1.625 C2.3325 1.625 0.3525 1.625 -1.6875 1.625 C-1.6875 2.285 -1.6875 2.945 -1.6875 3.625 C-3.6675 2.965 -5.6475 2.305 -7.6875 1.625 C-4.33422361 -0.61051759 -3.78006343 -0.54783528 0 0 Z " fill="#E1D641" transform="translate(48.6875,13.375)"/>
<path d="M0 0 C0.99 0 1.98 0 3 0 C3 0.66 3 1.32 3 2 C3.66 2.33 4.32 2.66 5 3 C4.01 4.485 4.01 4.485 3 6 C2.01 6 1.02 6 0 6 C0 4.02 0 2.04 0 0 Z " fill="#E5F3F4" transform="translate(59,92)"/>
<path d="M0 0 C2.31 0.33 4.62 0.66 7 1 C7.33 1.99 7.66 2.98 8 4 C6.68 4.33 5.36 4.66 4 5 C4 4.34 4 3.68 4 3 C2.68 2.67 1.36 2.34 0 2 C0 1.34 0 0.68 0 0 Z " fill="#3C5168" transform="translate(82,90)"/>
<path d="M0 0 C0.66 0.33 1.32 0.66 2 1 C1.875 2.8125 1.875 2.8125 1 5 C-2.0625 6.75 -2.0625 6.75 -5 8 C-5 7.01 -5 6.02 -5 5 C-4.360625 4.731875 -3.72125 4.46375 -3.0625 4.1875 C-0.66868314 3.11332248 -0.66868314 3.11332248 0 0 Z " fill="#80C0A6" transform="translate(86,69)"/>
<path d="M0 0 C2.475 0.99 2.475 0.99 5 2 C5 2.66 5 3.32 5 4 C1.37 4 -2.26 4 -6 4 C-6 3.67 -6 3.34 -6 3 C-4.35 3 -2.7 3 -1 3 C-0.67 2.01 -0.34 1.02 0 0 Z " fill="#847D49" transform="translate(31,26)"/>
<path d="M0 0 C1.98 0.495 1.98 0.495 4 1 C3.67 2.32 3.34 3.64 3 5 C1.68 4.67 0.36 4.34 -1 4 C-0.67 2.68 -0.34 1.36 0 0 Z " fill="#F9F8F8" transform="translate(77,16)"/>
<path d="M0 0 C0.33 0 0.66 0 1 0 C1 2.64 1 5.28 1 8 C-0.32 8 -1.64 8 -3 8 C-3 6.68 -3 5.36 -3 4 C-2.01 4 -1.02 4 0 4 C0 2.68 0 1.36 0 0 Z " fill="#ADD7DA" transform="translate(56,94)"/>
<path d="M0 0 C2.64 0.33 5.28 0.66 8 1 C8 1.66 8 2.32 8 3 C8.66 3.33 9.32 3.66 10 4 C3.47692308 3.38461538 3.47692308 3.38461538 1.0625 1.4375 C0.711875 0.963125 0.36125 0.48875 0 0 Z " fill="#698A3A" transform="translate(28,57)"/>
<path d="M0 0 C0.66 0.99 1.32 1.98 2 3 C-1.63423209 5.32590854 -4.77088331 5.16265833 -9 5 C-9 4.67 -9 4.34 -9 4 C-7.6078125 3.566875 -7.6078125 3.566875 -6.1875 3.125 C-2.90208333 2.1125 -2.90208333 2.1125 0 0 Z " fill="#3F3E61" transform="translate(72,48)"/>
<path d="M0 0 C2.4375 0.8125 2.4375 0.8125 5 2 C5.33 2.99 5.66 3.98 6 5 C2.62537285 4.45276317 0.91765 3.9451 -2 2 C-1.34 1.34 -0.68 0.68 0 0 Z " fill="#78CED9" transform="translate(81,26)"/>
<path d="M0 0 C2.49361571 1.20381448 4.68143083 2.45428722 7 4 C6.67 4.66 6.34 5.32 6 6 C4.02 5.34 2.04 4.68 0 4 C0 2.68 0 1.36 0 0 Z " fill="#3E6843" transform="translate(66,18)"/>
<path d="M0 0 C0.66 0.33 1.32 0.66 2 1 C2 1.66 2 2.32 2 3 C1.01 3 0.02 3 -1 3 C-1.33 3.99 -1.66 4.98 -2 6 C-2.99 5.67 -3.98 5.34 -5 5 C-4 2 -4 2 -2.0625 0.75 C-1.381875 0.5025 -0.70125 0.255 0 0 Z " fill="#9CD178" transform="translate(37,18)"/>
<path d="M0 0 C0.99 0.33 1.98 0.66 3 1 C2.34 2.32 1.68 3.64 1 5 C-0.65 5 -2.3 5 -4 5 C-2.68 3.35 -1.36 1.7 0 0 Z " fill="#83BE4D" transform="translate(53,7)"/>
<path d="M0 0 C0.99 0.66 1.98 1.32 3 2 C2.01 2 1.02 2 0 2 C0 3.32 0 4.64 0 6 C-0.99 6 -1.98 6 -3 6 C-3 4.35 -3 2.7 -3 1 C-2.01 0.67 -1.02 0.34 0 0 Z " fill="#BFE8E9" transform="translate(73,84)"/>
<path d="M0 0 C0.99 0 1.98 0 3 0 C3 2.64 3 5.28 3 8 C1.5 6.8125 1.5 6.8125 0 5 C-0.1875 2.3125 -0.1875 2.3125 0 0 Z " fill="#5A4781" transform="translate(71,39)"/>
<path d="M0 0 C3.465 1.485 3.465 1.485 7 3 C5.6875 4.5 5.6875 4.5 4 6 C3.01 6 2.02 6 1 6 C0.67 4.02 0.34 2.04 0 0 Z " fill="#EE620F" transform="translate(73,22)"/>
<path d="M0 0 C0.99 0 1.98 0 3 0 C3 1.65 3 3.3 3 5 C1.68 4.67 0.36 4.34 -1 4 C-0.67 2.68 -0.34 1.36 0 0 Z " fill="#334B61" transform="translate(74,80)"/>
<path d="M0 0 C3.68754757 0.49831724 5.60490662 1.10067643 8 4 C7.67 4.66 7.34 5.32 7 6 C6.01 6 5.02 6 4 6 C3.67 5.01 3.34 4.02 3 3 C1.50014391 1.33289654 1.50014391 1.33289654 0 0 Z " fill="#D5D670" transform="translate(86,66)"/>
<path d="M0 0 C3.03368793 3.03368793 5 5.63755776 5 10 C1.32769295 6.92000054 0.43197635 4.7517398 0 0 Z " fill="#BCBBBE" transform="translate(17,44)"/>
<path d="M0 0 C1.32 0.66 2.64 1.32 4 2 C3.67 2.99 3.34 3.98 3 5 C1.35 4.67 -0.3 4.34 -2 4 C-1.34 2.68 -0.68 1.36 0 0 Z " fill="#565E97" transform="translate(61,46)"/>
<path d="M0 0 C0.33 0 0.66 0 1 0 C1.66 3.96 2.32 7.92 3 12 C2.01 11.34 1.02 10.68 0 10 C-0.29296875 7.6171875 -0.29296875 7.6171875 -0.1875 4.875 C-0.16042969 3.96492188 -0.13335937 3.05484375 -0.10546875 2.1171875 C-0.07066406 1.41851562 -0.03585937 0.71984375 0 0 Z " fill="#3E5866" transform="translate(10,41)"/>
<path d="M0 0 C0 1.65 0 3.3 0 5 C-1.32 5 -2.64 5 -4 5 C-4 3.68 -4 2.36 -4 1 C-1 0 -1 0 0 0 Z " fill="#9BC4C9" transform="translate(58,83)"/>
<path d="M0 0 C0.99 0.33 1.98 0.66 3 1 C3.6875 3.0625 3.6875 3.0625 4 5 C3.34 5 2.68 5 2 5 C1.67 5.99 1.34 6.98 1 8 C0.34 5.69 -0.32 3.38 -1 1 C-0.67 0.67 -0.34 0.34 0 0 Z " fill="#2D3F54" transform="translate(80,76)"/>
<path d="M0 0 C1.98 0 3.96 0 6 0 C6 0.66 6 1.32 6 2 C3.69 2.33 1.38 2.66 -1 3 C-0.67 2.01 -0.34 1.02 0 0 Z " fill="#03507E" transform="translate(59,58)"/>
<path d="M0 0 C2.64 0 5.28 0 8 0 C7.67 0.99 7.34 1.98 7 3 C5.02 3 3.04 3 1 3 C0.67 2.01 0.34 1.02 0 0 Z " fill="#914B6F" transform="translate(45,50)"/>
<path d="M0 0 C0.33 0 0.66 0 1 0 C1.33 2.97 1.66 5.94 2 9 C1.01 8.34 0.02 7.68 -1 7 C-1.25 3.9375 -1.25 3.9375 -1 1 C-0.67 0.67 -0.34 0.34 0 0 Z " fill="#FDFDFD" transform="translate(13,41)"/>
<path d="M0 0 C2.64 0 5.28 0 8 0 C7.01 0.495 7.01 0.495 6 1 C6 1.66 6 2.32 6 3 C3.69 2.67 1.38 2.34 -1 2 C-0.67 1.34 -0.34 0.68 0 0 Z " fill="#565D7F" transform="translate(63,36)"/>
<path d="M0 0 C2.97 0.33 5.94 0.66 9 1 C9 1.66 9 2.32 9 3 C6.69 3 4.38 3 2 3 C2 2.34 2 1.68 2 1 C1.34 0.67 0.68 0.34 0 0 Z " fill="#585A79" transform="translate(28,36)"/>
<path d="M0 0 C0.33 0.99 0.66 1.98 1 3 C-1.97 3 -4.94 3 -8 3 C-8 2.34 -8 1.68 -8 1 C-5.07175348 0.02391783 -3.04386724 -0.08226668 0 0 Z " fill="#13878E" transform="translate(72,23)"/>
</svg>
